<?xml version="1.0" encoding="UTF-8" standalone="no"?><!-- Generator: Gravit.io --><svg xmlns="http://www.w3.org/2000/svg" xmlns:xlink="http://www.w3.org/1999/xlink" style="isolation:isolate" viewBox="1143.107 270.689 195.793 158.528" width="195.793pt" height="158.528pt"><g><g><g><mask id="_mask_j11E4dxOfElKA8JEPhzRny9DPeaE54Yc" x="-200%" y="-200%" width="400%" height="400%"><rect x="-200%" y="-200%" width="400%" height="400%" style="fill:white;"/><path d=" M 1299.056 310.877 L 1329.9 319.142 L 1321.687 349.792 L 1289.159 341.076 L 1282.962 339.416 L 1288.687 336.968 L 1283.912 332.183 L 1290.953 329.547 L 1285.666 325.637 L 1292.923 322.196 L 1288.535 318.62 L 1293.951 317.321 L 1288.087 312.915 L 1294.117 312.54 L 1293.019 309.259 L 1299.056 310.877 Z " fill="black" stroke="none"/></mask><path d=" M 1299.056 310.877 L 1329.9 319.142 L 1321.687 349.792 L 1289.159 341.076 L 1282.962 339.416 L 1288.687 336.968 L 1283.912 332.183 L 1290.953 329.547 L 1285.666 325.637 L 1292.923 322.196 L 1288.535 318.62 L 1293.951 317.321 L 1288.087 312.915 L 1294.117 312.54 L 1293.019 309.259 L 1299.056 310.877 Z " fill="rgb(255,255,255)"/><path d=" M 1299.056 310.877 L 1329.9 319.142 L 1321.687 349.792 L 1289.159 341.076 L 1282.962 339.416 L 1288.687 336.968 L 1283.912 332.183 L 1290.953 329.547 L 1285.666 325.637 L 1292.923 322.196 L 1288.535 318.62 L 1293.951 317.321 L 1288.087 312.915 L 1294.117 312.54 L 1293.019 309.259 L 1299.056 310.877 Z " fill="rgb(255,255,255)" mask="url(#_mask_j11E4dxOfElKA8JEPhzRny9DPeaE54Yc)" vector-effect="non-scaling-stroke" stroke-width="6" stroke="rgb(0,0,0)" stroke-linejoin="miter" stroke-linecap="butt" stroke-miterlimit="3"/><clipPath id="_clipPath_Q7hUAop6mQaWK3uS2gSyH0OhGTCgh9Ss"><path d=" M 1299.056 310.877 L 1329.9 319.142 L 1321.687 349.792 L 1289.159 341.076 L 1282.962 339.416 L 1288.687 336.968 L 1283.912 332.183 L 1290.953 329.547 L 1285.666 325.637 L 1292.923 322.196 L 1288.535 318.62 L 1293.951 317.321 L 1288.087 312.915 L 1294.117 312.54 L 1293.019 309.259 L 1299.056 310.877 Z " fill="rgb(255,255,255)"/><path d=" M 1299.056 310.877 L 1329.9 319.142 L 1321.687 349.792 L 1289.159 341.076 L 1282.962 339.416 L 1288.687 336.968 L 1283.912 332.183 L 1290.953 329.547 L 1285.666 325.637 L 1292.923 322.196 L 1288.535 318.62 L 1293.951 317.321 L 1288.087 312.915 L 1294.117 312.54 L 1293.019 309.259 L 1299.056 310.877 Z " fill="rgb(255,255,255)" mask="url(#_mask_j11E4dxOfElKA8JEPhzRny9DPeaE54Yc)" vector-effect="non-scaling-stroke" stroke-width="6" stroke="rgb(0,0,0)" stroke-linejoin="miter" stroke-linecap="butt" stroke-miterlimit="3"/></clipPath><g clip-path="url(#_clipPath_Q7hUAop6mQaWK3uS2gSyH0OhGTCgh9Ss)"><path d=" M 1287.531 337.116 L 1282.99 331.935 L 1288.847 329.396 L 1284.744 325.389 L 1290.659 322.635 L 1285.689 318.001 L 1290.07 317.104 L 1287.121 312.656 L 1291.364 312.275 C 1295.512 314.059 1298.109 317.181 1299.134 321.604 C 1300.394 327.039 1298.007 331.233 1294.804 333.902 C 1293.245 335.201 1289.932 336.635 1287.531 337.116 Z " fill="rgb(0,0,0)"/><path d=" M 1308.519 328.908 C 1309.045 326.942 1311.069 325.774 1313.035 326.301 C 1315.001 326.828 1316.169 328.851 1315.642 330.817 C 1315.115 332.783 1313.092 333.951 1311.126 333.425 C 1309.16 332.898 1307.992 330.874 1308.519 328.908 Z " fill="rgb(0,0,0)"/></g><path d=" M 1299.056 310.877 L 1329.9 319.142 L 1321.687 349.792 L 1289.159 341.076 L 1282.962 339.416 L 1288.687 336.968 L 1283.912 332.183 L 1290.953 329.547 L 1285.666 325.637 L 1292.923 322.196 L 1288.535 318.62 L 1293.951 317.321 L 1288.087 312.915 L 1294.117 312.54 L 1293.019 309.259 L 1299.056 310.877 Z " fill="transparent" mask="url(#_mask_j11E4dxOfElKA8JEPhzRny9DPeaE54Yc)" vector-effect="non-scaling-stroke" stroke-width="6" stroke="rgb(0,0,0)" stroke-linejoin="miter" stroke-linecap="butt" stroke-miterlimit="3"/><path d=" M 1281.445 324.329 Q 1281.848 324.767 1282.117 325.021 C 1283.353 326.186 1284.313 326.636 1284.081 327.715 L 1283.903 328.032 L 1284.717 328.679 L 1279.458 330.682 Q 1279.842 330.912 1280.079 331.026 L 1279.774 332.287 L 1283.003 335.449 L 1283.977 331.876 C 1285.775 331.626 1287.036 330.502 1287.737 328.468 Q 1288.623 326.068 1286.119 323.699 L 1284.942 322.72 L 1281.445 324.329 Z " fill="rgb(227,121,121)"/><path d=" M 1285.054 313.331 L 1284.804 314.207 L 1287.081 315.885 L 1281.935 317.124 Q 1283.759 318.586 1285.528 320.015 C 1285.824 320.254 1285.98 320.264 1286.166 320.386 C 1286.754 320.771 1287.117 321.069 1287.707 321.664 Q 1288.707 321.188 1289.075 319.223 Q 1288.132 318.211 1287.559 317.951 L 1288.431 314.791 L 1288.106 314.149 L 1285.054 313.331 Z " fill="rgb(227,121,121)"/></g><g><mask id="_mask_IE1S5wwczt0DrQVhreImKLl0HgIpIqGQ" x="-200%" y="-200%" width="400%" height="400%"><rect x="-200%" y="-200%" width="400%" height="400%" style="fill:white;"/><path d=" M 1256.11 339.259 L 1225.267 330.995 L 1233.48 300.344 L 1266.007 309.06 L 1272.204 310.72 L 1266.48 313.168 L 1271.254 317.954 L 1264.214 320.589 L 1269.5 324.5 L 1262.244 327.94 L 1266.632 331.516 L 1261.215 332.816 L 1267.08 337.221 L 1261.05 337.596 L 1262.148 340.877 L 1256.11 339.259 Z " fill="black" stroke="none"/></mask><path d=" M 1256.11 339.259 L 1225.267 330.995 L 1233.48 300.344 L 1266.007 309.06 L 1272.204 310.72 L 1266.48 313.168 L 1271.254 317.954 L 1264.214 320.589 L 1269.5 324.5 L 1262.244 327.94 L 1266.632 331.516 L 1261.215 332.816 L 1267.08 337.221 L 1261.05 337.596 L 1262.148 340.877 L 1256.11 339.259 Z " fill="rgb(255,255,255)"/><path d=" M 1256.11 339.259 L 1225.267 330.995 L 1233.48 300.344 L 1266.007 309.06 L 1272.204 310.72 L 1266.48 313.168 L 1271.254 317.954 L 1264.214 320.589 L 1269.5 324.5 L 1262.244 327.94 L 1266.632 331.516 L 1261.215 332.816 L 1267.08 337.221 L 1261.05 337.596 L 1262.148 340.877 L 1256.11 339.259 Z " fill="rgb(255,255,255)" mask="url(#_mask_IE1S5wwczt0DrQVhreImKLl0HgIpIqGQ)" vector-effect="non-scaling-stroke" stroke-width="6" stroke="rgb(0,0,0)" stroke-linejoin="miter" stroke-linecap="butt" stroke-miterlimit="3"/><clipPath id="_clipPath_hveFrpEi3EcL2rrkcLn9jrNiiip4HiT0"><path d=" M 1256.11 339.259 L 1225.267 330.995 L 1233.48 300.344 L 1266.007 309.06 L 1272.204 310.72 L 1266.48 313.168 L 1271.254 317.954 L 1264.214 320.589 L 1269.5 324.5 L 1262.244 327.94 L 1266.632 331.516 L 1261.215 332.816 L 1267.08 337.221 L 1261.05 337.596 L 1262.148 340.877 L 1256.11 339.259 Z " fill="rgb(255,255,255)"/><path d=" M 1256.11 339.259 L 1225.267 330.995 L 1233.48 300.344 L 1266.007 309.06 L 1272.204 310.72 L 1266.48 313.168 L 1271.254 317.954 L 1264.214 320.589 L 1269.5 324.5 L 1262.244 327.94 L 1266.632 331.516 L 1261.215 332.816 L 1267.08 337.221 L 1261.05 337.596 L 1262.148 340.877 L 1256.11 339.259 Z " fill="rgb(255,255,255)" mask="url(#_mask_IE1S5wwczt0DrQVhreImKLl0HgIpIqGQ)" vector-effect="non-scaling-stroke" stroke-width="6" stroke="rgb(0,0,0)" stroke-linejoin="miter" stroke-linecap="butt" stroke-miterlimit="3"/></clipPath><g clip-path="url(#_clipPath_hveFrpEi3EcL2rrkcLn9jrNiiip4HiT0)"><path d=" M 1267.644 312.99 L 1272.185 318.17 L 1266.328 320.71 L 1270.431 324.716 L 1264.516 327.471 L 1269.486 332.105 L 1265.105 333.002 L 1268.054 337.45 L 1263.811 337.831 C 1259.663 336.047 1257.065 332.925 1256.04 328.502 C 1254.781 323.067 1257.167 318.873 1260.371 316.204 C 1261.93 314.905 1265.243 313.471 1267.644 312.99 Z " fill="rgb(0,0,0)"/><path d=" M 1240.95 318.827 C 1241.477 316.861 1243.501 315.693 1245.467 316.219 C 1247.433 316.746 1248.601 318.77 1248.074 320.736 C 1247.547 322.702 1245.524 323.87 1243.558 323.343 C 1241.592 322.816 1240.424 320.793 1240.95 318.827 Z " fill="rgb(0,0,0)"/></g><path d=" M 1256.11 339.259 L 1225.267 330.995 L 1233.48 300.344 L 1266.007 309.06 L 1272.204 310.72 L 1266.48 313.168 L 1271.254 317.954 L 1264.214 320.589 L 1269.5 324.5 L 1262.244 327.94 L 1266.632 331.516 L 1261.215 332.816 L 1267.08 337.221 L 1261.05 337.596 L 1262.148 340.877 L 1256.11 339.259 Z " fill="transparent" mask="url(#_mask_IE1S5wwczt0DrQVhreImKLl0HgIpIqGQ)" vector-effect="non-scaling-stroke" stroke-width="6" stroke="rgb(0,0,0)" stroke-linejoin="miter" stroke-linecap="butt" stroke-miterlimit="3"/><path d=" M 1273.667 318.539 L 1273.124 320.431 L 1276.153 319.314 L 1273.667 318.539 Z " fill="rgb(227,121,121)"/><path d=" M 1270.864 321.755 L 1273.674 323.842 Q 1270.924 324.112 1273.211 326.036 L 1270.409 327.347 Q 1267.935 324.355 1270.864 321.755 Z " fill="rgb(227,121,121)"/><path d=" M 1267.268 330.74 Q 1267.325 330.209 1268.847 329.464 L 1273.222 333.014 L 1269.332 333.949 L 1269.595 333.147 C 1268.509 332.625 1267.731 331.841 1267.268 330.74 Z " fill="rgb(227,121,121)"/><path d=" M 1269.06 334.964 L 1268.91 335.523 L 1269.118 336.015 L 1271.141 336.493 L 1269.06 334.964 Z " fill="rgb(227,121,121)"/></g></g><g><g><mask id="_mask_MOfCAtDtra3y7IL6YsFzROlQwmwt1Ay7" x="-200%" y="-200%" width="400%" height="400%"><rect x="-200%" y="-200%" width="400%" height="400%" style="fill:white;"/><path d=" M 1205.386 296.032 L 1232.819 279.689 L 1249.06 306.949 L 1220.129 324.185 L 1214.618 327.468 L 1216.855 321.658 L 1210.096 321.743 L 1213.117 314.859 L 1206.627 315.921 L 1209.222 308.322 L 1203.599 308.972 L 1206.445 304.184 L 1199.198 305.315 L 1203.134 300.732 L 1200.017 299.231 L 1205.386 296.032 Z " fill="black" stroke="none"/></mask><path d=" M 1205.386 296.032 L 1232.819 279.689 L 1249.06 306.949 L 1220.129 324.185 L 1214.618 327.468 L 1216.855 321.658 L 1210.096 321.743 L 1213.117 314.859 L 1206.627 315.921 L 1209.222 308.322 L 1203.599 308.972 L 1206.445 304.184 L 1199.198 305.315 L 1203.134 300.732 L 1200.017 299.231 L 1205.386 296.032 Z " fill="rgb(255,255,255)"/><path d=" M 1205.386 296.032 L 1232.819 279.689 L 1249.06 306.949 L 1220.129 324.185 L 1214.618 327.468 L 1216.855 321.658 L 1210.096 321.743 L 1213.117 314.859 L 1206.627 315.921 L 1209.222 308.322 L 1203.599 308.972 L 1206.445 304.184 L 1199.198 305.315 L 1203.134 300.732 L 1200.017 299.231 L 1205.386 296.032 Z " fill="rgb(255,255,255)" mask="url(#_mask_MOfCAtDtra3y7IL6YsFzROlQwmwt1Ay7)" vector-effect="non-scaling-stroke" stroke-width="6" stroke="rgb(0,0,0)" stroke-linejoin="miter" stroke-linecap="butt" stroke-miterlimit="3"/><clipPath id="_clipPath_7TJEHUHfkSCd01IktWvyLihpxojig3mr"><path d=" M 1205.386 296.032 L 1232.819 279.689 L 1249.06 306.949 L 1220.129 324.185 L 1214.618 327.468 L 1216.855 321.658 L 1210.096 321.743 L 1213.117 314.859 L 1206.627 315.921 L 1209.222 308.322 L 1203.599 308.972 L 1206.445 304.184 L 1199.198 305.315 L 1203.134 300.732 L 1200.017 299.231 L 1205.386 296.032 Z " fill="rgb(255,255,255)"/><path d=" M 1205.386 296.032 L 1232.819 279.689 L 1249.06 306.949 L 1220.129 324.185 L 1214.618 327.468 L 1216.855 321.658 L 1210.096 321.743 L 1213.117 314.859 L 1206.627 315.921 L 1209.222 308.322 L 1203.599 308.972 L 1206.445 304.184 L 1199.198 305.315 L 1203.134 300.732 L 1200.017 299.231 L 1205.386 296.032 Z " fill="rgb(255,255,255)" mask="url(#_mask_MOfCAtDtra3y7IL6YsFzROlQwmwt1Ay7)" vector-effect="non-scaling-stroke" stroke-width="6" stroke="rgb(0,0,0)" stroke-linejoin="miter" stroke-linecap="butt" stroke-miterlimit="3"/></clipPath><g clip-path="url(#_clipPath_7TJEHUHfkSCd01IktWvyLihpxojig3mr)"><path d=" M 1216.156 322.59 L 1209.276 322.232 L 1211.54 316.263 L 1205.807 316.41 L 1207.957 310.25 L 1201.17 310.58 L 1203.583 306.815 L 1198.339 305.827 L 1201.024 302.519 C 1205.196 300.791 1209.244 301.106 1213.129 303.456 C 1217.903 306.343 1219.245 310.979 1218.923 315.136 C 1218.767 317.159 1217.485 320.534 1216.156 322.59 Z " fill="rgb(0,0,0)"/><path d=" M 1224.909 301.824 C 1223.867 300.076 1224.441 297.811 1226.189 296.769 C 1227.938 295.727 1230.203 296.301 1231.244 298.049 C 1232.286 299.798 1231.712 302.063 1229.964 303.105 C 1228.215 304.146 1225.95 303.573 1224.909 301.824 Z " fill="rgb(0,0,0)"/></g><path d=" M 1205.386 296.032 L 1232.819 279.689 L 1249.06 306.949 L 1220.129 324.185 L 1214.618 327.468 L 1216.855 321.658 L 1210.096 321.743 L 1213.117 314.859 L 1206.627 315.921 L 1209.222 308.322 L 1203.599 308.972 L 1206.445 304.184 L 1199.198 305.315 L 1203.134 300.732 L 1200.017 299.231 L 1205.386 296.032 Z " fill="transparent" mask="url(#_mask_MOfCAtDtra3y7IL6YsFzROlQwmwt1Ay7)" vector-effect="non-scaling-stroke" stroke-width="6" stroke="rgb(0,0,0)" stroke-linejoin="miter" stroke-linecap="butt" stroke-miterlimit="3"/><path d=" M 1202.747 318.035 Q 1203.342 318.052 1203.711 318.036 C 1205.408 317.962 1206.4 317.588 1207.011 318.507 L 1207.115 318.856 L 1208.146 318.723 L 1205.914 323.889 Q 1206.347 323.774 1206.594 323.684 L 1207.285 324.782 L 1211.803 324.673 L 1209.921 321.484 C 1210.996 320.02 1211.07 318.333 1210.101 316.412 Q 1208.998 314.104 1205.555 314.246 L 1204.032 314.407 L 1202.747 318.035 Z " fill="rgb(227,121,121)"/><path d=" M 1197.38 307.779 L 1197.835 308.569 L 1200.624 308.107 L 1197.924 312.659 Q 1200.244 312.371 1202.502 312.1 C 1202.88 312.055 1202.995 311.95 1203.213 311.902 C 1203.899 311.749 1204.365 311.696 1205.203 311.688 Q 1205.559 310.64 1204.407 309.006 Q 1203.025 308.976 1202.439 309.206 L 1200.782 306.376 L 1200.095 306.162 L 1197.38 307.779 Z " fill="rgb(227,121,121)"/></g><g><mask id="_mask_wpuCZVAte7g6BqppTAjXBnREY9HE3iu5" x="-200%" y="-200%" width="400%" height="400%"><rect x="-200%" y="-200%" width="400%" height="400%" style="fill:white;"/><path d=" M 1195.78 346.605 L 1168.348 362.948 L 1152.107 335.687 L 1181.037 318.452 L 1186.549 315.168 L 1184.311 320.978 L 1191.071 320.893 L 1188.05 327.777 L 1194.539 326.715 L 1191.945 334.315 L 1197.568 333.664 L 1194.722 338.452 L 1201.969 337.321 L 1198.033 341.905 L 1201.15 343.406 L 1195.78 346.605 Z " fill="black" stroke="none"/></mask><path d=" M 1195.78 346.605 L 1168.348 362.948 L 1152.107 335.687 L 1181.037 318.452 L 1186.549 315.168 L 1184.311 320.978 L 1191.071 320.893 L 1188.05 327.777 L 1194.539 326.715 L 1191.945 334.315 L 1197.568 333.664 L 1194.722 338.452 L 1201.969 337.321 L 1198.033 341.905 L 1201.15 343.406 L 1195.78 346.605 Z " fill="rgb(255,255,255)"/><path d=" M 1195.78 346.605 L 1168.348 362.948 L 1152.107 335.687 L 1181.037 318.452 L 1186.549 315.168 L 1184.311 320.978 L 1191.071 320.893 L 1188.05 327.777 L 1194.539 326.715 L 1191.945 334.315 L 1197.568 333.664 L 1194.722 338.452 L 1201.969 337.321 L 1198.033 341.905 L 1201.15 343.406 L 1195.78 346.605 Z " fill="rgb(255,255,255)" mask="url(#_mask_wpuCZVAte7g6BqppTAjXBnREY9HE3iu5)" vector-effect="non-scaling-stroke" stroke-width="6" stroke="rgb(0,0,0)" stroke-linejoin="miter" stroke-linecap="butt" stroke-miterlimit="3"/><clipPath id="_clipPath_mwsyta6HWTzbbzHAVZMxrPWkeBG6jZQp"><path d=" M 1195.78 346.605 L 1168.348 362.948 L 1152.107 335.687 L 1181.037 318.452 L 1186.549 315.168 L 1184.311 320.978 L 1191.071 320.893 L 1188.05 327.777 L 1194.539 326.715 L 1191.945 334.315 L 1197.568 333.664 L 1194.722 338.452 L 1201.969 337.321 L 1198.033 341.905 L 1201.15 343.406 L 1195.78 346.605 Z " fill="rgb(255,255,255)"/><path d=" M 1195.78 346.605 L 1168.348 362.948 L 1152.107 335.687 L 1181.037 318.452 L 1186.549 315.168 L 1184.311 320.978 L 1191.071 320.893 L 1188.05 327.777 L 1194.539 326.715 L 1191.945 334.315 L 1197.568 333.664 L 1194.722 338.452 L 1201.969 337.321 L 1198.033 341.905 L 1201.15 343.406 L 1195.78 346.605 Z " fill="rgb(255,255,255)" mask="url(#_mask_wpuCZVAte7g6BqppTAjXBnREY9HE3iu5)" vector-effect="non-scaling-stroke" stroke-width="6" stroke="rgb(0,0,0)" stroke-linejoin="miter" stroke-linecap="butt" stroke-miterlimit="3"/></clipPath><g clip-path="url(#_clipPath_mwsyta6HWTzbbzHAVZMxrPWkeBG6jZQp)"><path d=" M 1184.995 320.019 L 1191.875 320.377 L 1189.611 326.346 L 1195.343 326.199 L 1193.193 332.36 L 1199.98 332.029 L 1197.568 335.794 L 1202.812 336.782 L 1200.127 340.09 C 1195.955 341.819 1191.906 341.503 1188.022 339.153 C 1183.247 336.266 1181.906 331.63 1182.227 327.473 C 1182.384 325.45 1183.666 322.076 1184.995 320.019 Z " fill="rgb(0,0,0)"/><path d=" M 1170.564 343.221 C 1169.522 341.473 1170.096 339.208 1171.844 338.166 C 1173.593 337.125 1175.858 337.698 1176.9 339.447 C 1177.941 341.195 1177.368 343.46 1175.619 344.502 C 1173.871 345.544 1171.606 344.97 1170.564 343.221 Z " fill="rgb(0,0,0)"/></g><path d=" M 1195.78 346.605 L 1168.348 362.948 L 1152.107 335.687 L 1181.037 318.452 L 1186.549 315.168 L 1184.311 320.978 L 1191.071 320.893 L 1188.05 327.777 L 1194.539 326.715 L 1191.945 334.315 L 1197.568 333.664 L 1194.722 338.452 L 1201.969 337.321 L 1198.033 341.905 L 1201.15 343.406 L 1195.78 346.605 Z " fill="transparent" mask="url(#_mask_wpuCZVAte7g6BqppTAjXBnREY9HE3iu5)" vector-effect="non-scaling-stroke" stroke-width="6" stroke="rgb(0,0,0)" stroke-linejoin="miter" stroke-linecap="butt" stroke-miterlimit="3"/><path d=" M 1193.173 319.572 L 1194.15 321.281 L 1195.462 318.331 L 1193.173 319.572 Z " fill="rgb(227,121,121)"/><path d=" M 1193.523 323.823 L 1196.978 323.265 Q 1195.254 325.424 1198.228 325.126 L 1197.214 328.049 Q 1193.344 327.736 1193.523 323.823 Z " fill="rgb(227,121,121)"/><path d=" M 1197.455 332.666 Q 1197.114 332.255 1197.642 330.645 L 1203.237 329.985 L 1201.194 333.426 L 1200.803 332.677 C 1199.672 333.092 1198.567 333.102 1197.455 332.666 Z " fill="rgb(227,121,121)"/><path d=" M 1201.732 334.329 L 1202.028 334.825 L 1202.526 335.02 L 1204.279 333.902 L 1201.732 334.329 Z " fill="rgb(227,121,121)"/></g></g><g><g><mask id="_mask_0eUy6ynfVHjAnz0gCW45XAy4Rv09idt3" x="-200%" y="-200%" width="400%" height="400%"><rect x="-200%" y="-200%" width="400%" height="400%" style="fill:white;"/><path d=" M 1249.556 362.627 L 1280.4 370.892 L 1272.187 401.542 L 1239.659 392.826 L 1233.462 391.166 L 1239.187 388.718 L 1234.412 383.933 L 1241.453 381.297 L 1236.166 377.387 L 1243.423 373.946 L 1239.035 370.37 L 1244.451 369.071 L 1238.587 364.665 L 1244.617 364.29 L 1243.519 361.009 L 1249.556 362.627 Z " fill="black" stroke="none"/></mask><path d=" M 1249.556 362.627 L 1280.4 370.892 L 1272.187 401.542 L 1239.659 392.826 L 1233.462 391.166 L 1239.187 388.718 L 1234.412 383.933 L 1241.453 381.297 L 1236.166 377.387 L 1243.423 373.946 L 1239.035 370.37 L 1244.451 369.071 L 1238.587 364.665 L 1244.617 364.29 L 1243.519 361.009 L 1249.556 362.627 Z " fill="rgb(255,255,255)"/><path d=" M 1249.556 362.627 L 1280.4 370.892 L 1272.187 401.542 L 1239.659 392.826 L 1233.462 391.166 L 1239.187 388.718 L 1234.412 383.933 L 1241.453 381.297 L 1236.166 377.387 L 1243.423 373.946 L 1239.035 370.37 L 1244.451 369.071 L 1238.587 364.665 L 1244.617 364.29 L 1243.519 361.009 L 1249.556 362.627 Z " fill="rgb(255,255,255)" mask="url(#_mask_0eUy6ynfVHjAnz0gCW45XAy4Rv09idt3)" vector-effect="non-scaling-stroke" stroke-width="6" stroke="rgb(0,0,0)" stroke-linejoin="miter" stroke-linecap="butt" stroke-miterlimit="3"/><clipPath id="_clipPath_zOBUuxztVMVK6Afu72FSEveQAFiNvVRj"><path d=" M 1249.556 362.627 L 1280.4 370.892 L 1272.187 401.542 L 1239.659 392.826 L 1233.462 391.166 L 1239.187 388.718 L 1234.412 383.933 L 1241.453 381.297 L 1236.166 377.387 L 1243.423 373.946 L 1239.035 370.37 L 1244.451 369.071 L 1238.587 364.665 L 1244.617 364.29 L 1243.519 361.009 L 1249.556 362.627 Z " fill="rgb(255,255,255)"/><path d=" M 1249.556 362.627 L 1280.4 370.892 L 1272.187 401.542 L 1239.659 392.826 L 1233.462 391.166 L 1239.187 388.718 L 1234.412 383.933 L 1241.453 381.297 L 1236.166 377.387 L 1243.423 373.946 L 1239.035 370.37 L 1244.451 369.071 L 1238.587 364.665 L 1244.617 364.29 L 1243.519 361.009 L 1249.556 362.627 Z " fill="rgb(255,255,255)" mask="url(#_mask_0eUy6ynfVHjAnz0gCW45XAy4Rv09idt3)" vector-effect="non-scaling-stroke" stroke-width="6" stroke="rgb(0,0,0)" stroke-linejoin="miter" stroke-linecap="butt" stroke-miterlimit="3"/></clipPath><g clip-path="url(#_clipPath_zOBUuxztVMVK6Afu72FSEveQAFiNvVRj)"><path d=" M 1238.031 388.866 L 1233.49 383.685 L 1239.347 381.146 L 1235.244 377.139 L 1241.159 374.385 L 1236.189 369.751 L 1240.57 368.854 L 1237.621 364.406 L 1241.864 364.025 C 1246.012 365.809 1248.609 368.931 1249.634 373.354 C 1250.894 378.789 1248.507 382.983 1245.304 385.652 C 1243.745 386.951 1240.432 388.385 1238.031 388.866 Z " fill="rgb(0,0,0)"/><path d=" M 1259.019 380.658 C 1259.545 378.692 1261.569 377.524 1263.535 378.051 C 1265.501 378.578 1266.669 380.601 1266.142 382.567 C 1265.615 384.533 1263.592 385.701 1261.626 385.175 C 1259.66 384.648 1258.492 382.624 1259.019 380.658 Z " fill="rgb(0,0,0)"/></g><path d=" M 1249.556 362.627 L 1280.4 370.892 L 1272.187 401.542 L 1239.659 392.826 L 1233.462 391.166 L 1239.187 388.718 L 1234.412 383.933 L 1241.453 381.297 L 1236.166 377.387 L 1243.423 373.946 L 1239.035 370.37 L 1244.451 369.071 L 1238.587 364.665 L 1244.617 364.29 L 1243.519 361.009 L 1249.556 362.627 Z " fill="transparent" mask="url(#_mask_0eUy6ynfVHjAnz0gCW45XAy4Rv09idt3)" vector-effect="non-scaling-stroke" stroke-width="6" stroke="rgb(0,0,0)" stroke-linejoin="miter" stroke-linecap="butt" stroke-miterlimit="3"/><path d=" M 1231.945 376.079 Q 1232.348 376.517 1232.617 376.771 C 1233.853 377.936 1234.813 378.386 1234.581 379.465 L 1234.403 379.782 L 1235.217 380.429 L 1229.958 382.432 Q 1230.342 382.662 1230.579 382.776 L 1230.274 384.037 L 1233.503 387.199 L 1234.477 383.626 C 1236.275 383.376 1237.536 382.252 1238.237 380.218 Q 1239.123 377.818 1236.619 375.449 L 1235.442 374.47 L 1231.945 376.079 Z " fill="rgb(227,121,121)"/><path d=" M 1235.554 365.081 L 1235.304 365.957 L 1237.581 367.635 L 1232.435 368.874 Q 1234.259 370.336 1236.028 371.765 C 1236.324 372.004 1236.48 372.014 1236.666 372.136 C 1237.254 372.521 1237.617 372.819 1238.207 373.414 Q 1239.207 372.938 1239.575 370.973 Q 1238.632 369.961 1238.059 369.701 L 1238.931 366.541 L 1238.606 365.899 L 1235.554 365.081 Z " fill="rgb(227,121,121)"/></g><g><mask id="_mask_bERSuQGwvIZpivlf2N5wGfqDqROuE3rj" x="-200%" y="-200%" width="400%" height="400%"><rect x="-200%" y="-200%" width="400%" height="400%" style="fill:white;"/><path d=" M 1206.61 391.009 L 1175.767 382.745 L 1183.98 352.094 L 1216.507 360.81 L 1222.704 362.47 L 1216.98 364.918 L 1221.754 369.704 L 1214.714 372.339 L 1220 376.25 L 1212.744 379.69 L 1217.132 383.266 L 1211.715 384.566 L 1217.58 388.971 L 1211.55 389.346 L 1212.648 392.627 L 1206.61 391.009 Z " fill="black" stroke="none"/></mask><path d=" M 1206.61 391.009 L 1175.767 382.745 L 1183.98 352.094 L 1216.507 360.81 L 1222.704 362.47 L 1216.98 364.918 L 1221.754 369.704 L 1214.714 372.339 L 1220 376.25 L 1212.744 379.69 L 1217.132 383.266 L 1211.715 384.566 L 1217.58 388.971 L 1211.55 389.346 L 1212.648 392.627 L 1206.61 391.009 Z " fill="rgb(255,255,255)"/><path d=" M 1206.61 391.009 L 1175.767 382.745 L 1183.98 352.094 L 1216.507 360.81 L 1222.704 362.47 L 1216.98 364.918 L 1221.754 369.704 L 1214.714 372.339 L 1220 376.25 L 1212.744 379.69 L 1217.132 383.266 L 1211.715 384.566 L 1217.58 388.971 L 1211.55 389.346 L 1212.648 392.627 L 1206.61 391.009 Z " fill="rgb(255,255,255)" mask="url(#_mask_bERSuQGwvIZpivlf2N5wGfqDqROuE3rj)" vector-effect="non-scaling-stroke" stroke-width="6" stroke="rgb(0,0,0)" stroke-linejoin="miter" stroke-linecap="butt" stroke-miterlimit="3"/><clipPath id="_clipPath_GkYhHJeMOXlz50tEu41GsbFViZauJnr8"><path d=" M 1206.61 391.009 L 1175.767 382.745 L 1183.98 352.094 L 1216.507 360.81 L 1222.704 362.47 L 1216.98 364.918 L 1221.754 369.704 L 1214.714 372.339 L 1220 376.25 L 1212.744 379.69 L 1217.132 383.266 L 1211.715 384.566 L 1217.58 388.971 L 1211.55 389.346 L 1212.648 392.627 L 1206.61 391.009 Z " fill="rgb(255,255,255)"/><path d=" M 1206.61 391.009 L 1175.767 382.745 L 1183.98 352.094 L 1216.507 360.81 L 1222.704 362.47 L 1216.98 364.918 L 1221.754 369.704 L 1214.714 372.339 L 1220 376.25 L 1212.744 379.69 L 1217.132 383.266 L 1211.715 384.566 L 1217.58 388.971 L 1211.55 389.346 L 1212.648 392.627 L 1206.61 391.009 Z " fill="rgb(255,255,255)" mask="url(#_mask_bERSuQGwvIZpivlf2N5wGfqDqROuE3rj)" vector-effect="non-scaling-stroke" stroke-width="6" stroke="rgb(0,0,0)" stroke-linejoin="miter" stroke-linecap="butt" stroke-miterlimit="3"/></clipPath><g clip-path="url(#_clipPath_GkYhHJeMOXlz50tEu41GsbFViZauJnr8)"><path d=" M 1218.144 364.74 L 1222.685 369.92 L 1216.828 372.46 L 1220.931 376.466 L 1215.016 379.221 L 1219.986 383.855 L 1215.605 384.752 L 1218.554 389.2 L 1214.311 389.581 C 1210.163 387.797 1207.565 384.675 1206.54 380.252 C 1205.281 374.817 1207.667 370.623 1210.871 367.954 C 1212.43 366.655 1215.743 365.221 1218.144 364.74 Z " fill="rgb(0,0,0)"/><path d=" M 1191.45 370.577 C 1191.977 368.611 1194.001 367.443 1195.967 367.969 C 1197.933 368.496 1199.101 370.52 1198.574 372.486 C 1198.047 374.452 1196.024 375.62 1194.058 375.093 C 1192.092 374.566 1190.924 372.543 1191.45 370.577 Z " fill="rgb(0,0,0)"/></g><path d=" M 1206.61 391.009 L 1175.767 382.745 L 1183.98 352.094 L 1216.507 360.81 L 1222.704 362.47 L 1216.98 364.918 L 1221.754 369.704 L 1214.714 372.339 L 1220 376.25 L 1212.744 379.69 L 1217.132 383.266 L 1211.715 384.566 L 1217.58 388.971 L 1211.55 389.346 L 1212.648 392.627 L 1206.61 391.009 Z " fill="transparent" mask="url(#_mask_bERSuQGwvIZpivlf2N5wGfqDqROuE3rj)" vector-effect="non-scaling-stroke" stroke-width="6" stroke="rgb(0,0,0)" stroke-linejoin="miter" stroke-linecap="butt" stroke-miterlimit="3"/><path d=" M 1224.167 370.289 L 1223.624 372.181 L 1226.653 371.064 L 1224.167 370.289 Z " fill="rgb(227,121,121)"/><path d=" M 1221.364 373.505 L 1224.174 375.592 Q 1221.424 375.862 1223.711 377.786 L 1220.909 379.097 Q 1218.435 376.105 1221.364 373.505 Z " fill="rgb(227,121,121)"/><path d=" M 1217.768 382.49 Q 1217.825 381.959 1219.347 381.214 L 1223.722 384.764 L 1219.832 385.699 L 1220.095 384.897 C 1219.009 384.375 1218.231 383.591 1217.768 382.49 Z " fill="rgb(227,121,121)"/><path d=" M 1219.56 386.714 L 1219.41 387.273 L 1219.618 387.765 L 1221.641 388.243 L 1219.56 386.714 Z " fill="rgb(227,121,121)"/></g></g><g><g><mask id="_mask_xujuJxaZxNQV8WtRfPVYHBFeJBKiH1mV" x="-200%" y="-200%" width="400%" height="400%"><rect x="-200%" y="-200%" width="400%" height="400%" style="fill:white;"/><path d=" M 1267.806 334.877 L 1298.65 343.142 L 1290.437 373.792 L 1257.909 365.076 L 1251.712 363.416 L 1257.437 360.968 L 1252.662 356.183 L 1259.703 353.547 L 1254.416 349.637 L 1261.673 346.196 L 1257.285 342.62 L 1262.701 341.321 L 1256.837 336.915 L 1262.867 336.54 L 1261.769 333.259 L 1267.806 334.877 Z " fill="black" stroke="none"/></mask><path d=" M 1267.806 334.877 L 1298.65 343.142 L 1290.437 373.792 L 1257.909 365.076 L 1251.712 363.416 L 1257.437 360.968 L 1252.662 356.183 L 1259.703 353.547 L 1254.416 349.637 L 1261.673 346.196 L 1257.285 342.62 L 1262.701 341.321 L 1256.837 336.915 L 1262.867 336.54 L 1261.769 333.259 L 1267.806 334.877 Z " fill="rgb(255,255,255)"/><path d=" M 1267.806 334.877 L 1298.65 343.142 L 1290.437 373.792 L 1257.909 365.076 L 1251.712 363.416 L 1257.437 360.968 L 1252.662 356.183 L 1259.703 353.547 L 1254.416 349.637 L 1261.673 346.196 L 1257.285 342.62 L 1262.701 341.321 L 1256.837 336.915 L 1262.867 336.54 L 1261.769 333.259 L 1267.806 334.877 Z " fill="rgb(255,255,255)" mask="url(#_mask_xujuJxaZxNQV8WtRfPVYHBFeJBKiH1mV)" vector-effect="non-scaling-stroke" stroke-width="6" stroke="rgb(0,0,0)" stroke-linejoin="miter" stroke-linecap="butt" stroke-miterlimit="3"/><clipPath id="_clipPath_9Ed7cUEUzBw2mYrUjzPcyumC5rUWjtUr"><path d=" M 1267.806 334.877 L 1298.65 343.142 L 1290.437 373.792 L 1257.909 365.076 L 1251.712 363.416 L 1257.437 360.968 L 1252.662 356.183 L 1259.703 353.547 L 1254.416 349.637 L 1261.673 346.196 L 1257.285 342.62 L 1262.701 341.321 L 1256.837 336.915 L 1262.867 336.54 L 1261.769 333.259 L 1267.806 334.877 Z " fill="rgb(255,255,255)"/><path d=" M 1267.806 334.877 L 1298.65 343.142 L 1290.437 373.792 L 1257.909 365.076 L 1251.712 363.416 L 1257.437 360.968 L 1252.662 356.183 L 1259.703 353.547 L 1254.416 349.637 L 1261.673 346.196 L 1257.285 342.62 L 1262.701 341.321 L 1256.837 336.915 L 1262.867 336.54 L 1261.769 333.259 L 1267.806 334.877 Z " fill="rgb(255,255,255)" mask="url(#_mask_xujuJxaZxNQV8WtRfPVYHBFeJBKiH1mV)" vector-effect="non-scaling-stroke" stroke-width="6" stroke="rgb(0,0,0)" stroke-linejoin="miter" stroke-linecap="butt" stroke-miterlimit="3"/></clipPath><g clip-path="url(#_clipPath_9Ed7cUEUzBw2mYrUjzPcyumC5rUWjtUr)"><path d=" M 1256.281 361.116 L 1251.74 355.935 L 1257.597 353.396 L 1253.494 349.389 L 1259.409 346.635 L 1254.439 342.001 L 1258.82 341.104 L 1255.871 336.656 L 1260.114 336.275 C 1264.262 338.059 1266.859 341.181 1267.884 345.604 C 1269.144 351.039 1266.757 355.233 1263.554 357.902 C 1261.995 359.201 1258.682 360.635 1256.281 361.116 Z " fill="rgb(0,0,0)"/><path d=" M 1277.269 352.908 C 1277.795 350.942 1279.819 349.774 1281.785 350.301 C 1283.751 350.828 1284.919 352.851 1284.392 354.817 C 1283.865 356.783 1281.842 357.951 1279.876 357.425 C 1277.91 356.898 1276.742 354.874 1277.269 352.908 Z " fill="rgb(0,0,0)"/></g><path d=" M 1267.806 334.877 L 1298.65 343.142 L 1290.437 373.792 L 1257.909 365.076 L 1251.712 363.416 L 1257.437 360.968 L 1252.662 356.183 L 1259.703 353.547 L 1254.416 349.637 L 1261.673 346.196 L 1257.285 342.62 L 1262.701 341.321 L 1256.837 336.915 L 1262.867 336.54 L 1261.769 333.259 L 1267.806 334.877 Z " fill="transparent" mask="url(#_mask_xujuJxaZxNQV8WtRfPVYHBFeJBKiH1mV)" vector-effect="non-scaling-stroke" stroke-width="6" stroke="rgb(0,0,0)" stroke-linejoin="miter" stroke-linecap="butt" stroke-miterlimit="3"/><path d=" M 1250.195 348.329 Q 1250.598 348.767 1250.867 349.021 C 1252.103 350.186 1253.063 350.636 1252.831 351.715 L 1252.653 352.032 L 1253.467 352.679 L 1248.208 354.682 Q 1248.592 354.912 1248.829 355.026 L 1248.524 356.287 L 1251.753 359.449 L 1252.727 355.876 C 1254.525 355.626 1255.786 354.502 1256.487 352.468 Q 1257.373 350.068 1254.869 347.699 L 1253.692 346.72 L 1250.195 348.329 Z " fill="rgb(227,121,121)"/><path d=" M 1253.804 337.331 L 1253.554 338.207 L 1255.831 339.885 L 1250.685 341.124 Q 1252.509 342.586 1254.278 344.015 C 1254.574 344.254 1254.73 344.264 1254.916 344.386 C 1255.504 344.771 1255.867 345.069 1256.457 345.664 Q 1257.457 345.188 1257.825 343.223 Q 1256.882 342.211 1256.309 341.951 L 1257.181 338.791 L 1256.856 338.149 L 1253.804 337.331 Z " fill="rgb(227,121,121)"/></g><g><mask id="_mask_9IMr53vC4J5ihlot5ysvFTanzZdcnz49" x="-200%" y="-200%" width="400%" height="400%"><rect x="-200%" y="-200%" width="400%" height="400%" style="fill:white;"/><path d=" M 1224.86 363.259 L 1194.017 354.995 L 1202.23 324.344 L 1234.757 333.06 L 1240.954 334.72 L 1235.23 337.168 L 1240.004 341.954 L 1232.964 344.589 L 1238.25 348.5 L 1230.994 351.94 L 1235.382 355.516 L 1229.965 356.816 L 1235.83 361.221 L 1229.8 361.596 L 1230.898 364.877 L 1224.86 363.259 Z " fill="black" stroke="none"/></mask><path d=" M 1224.86 363.259 L 1194.017 354.995 L 1202.23 324.344 L 1234.757 333.06 L 1240.954 334.72 L 1235.23 337.168 L 1240.004 341.954 L 1232.964 344.589 L 1238.25 348.5 L 1230.994 351.94 L 1235.382 355.516 L 1229.965 356.816 L 1235.83 361.221 L 1229.8 361.596 L 1230.898 364.877 L 1224.86 363.259 Z " fill="rgb(255,255,255)"/><path d=" M 1224.86 363.259 L 1194.017 354.995 L 1202.23 324.344 L 1234.757 333.06 L 1240.954 334.72 L 1235.23 337.168 L 1240.004 341.954 L 1232.964 344.589 L 1238.25 348.5 L 1230.994 351.94 L 1235.382 355.516 L 1229.965 356.816 L 1235.83 361.221 L 1229.8 361.596 L 1230.898 364.877 L 1224.86 363.259 Z " fill="rgb(255,255,255)" mask="url(#_mask_9IMr53vC4J5ihlot5ysvFTanzZdcnz49)" vector-effect="non-scaling-stroke" stroke-width="6" stroke="rgb(0,0,0)" stroke-linejoin="miter" stroke-linecap="butt" stroke-miterlimit="3"/><clipPath id="_clipPath_ecT7uK6Yq40tUXBpd3UMg1IRUNjosgsn"><path d=" M 1224.86 363.259 L 1194.017 354.995 L 1202.23 324.344 L 1234.757 333.06 L 1240.954 334.72 L 1235.23 337.168 L 1240.004 341.954 L 1232.964 344.589 L 1238.25 348.5 L 1230.994 351.94 L 1235.382 355.516 L 1229.965 356.816 L 1235.83 361.221 L 1229.8 361.596 L 1230.898 364.877 L 1224.86 363.259 Z " fill="rgb(255,255,255)"/><path d=" M 1224.86 363.259 L 1194.017 354.995 L 1202.23 324.344 L 1234.757 333.06 L 1240.954 334.72 L 1235.23 337.168 L 1240.004 341.954 L 1232.964 344.589 L 1238.25 348.5 L 1230.994 351.94 L 1235.382 355.516 L 1229.965 356.816 L 1235.83 361.221 L 1229.8 361.596 L 1230.898 364.877 L 1224.86 363.259 Z " fill="rgb(255,255,255)" mask="url(#_mask_9IMr53vC4J5ihlot5ysvFTanzZdcnz49)" vector-effect="non-scaling-stroke" stroke-width="6" stroke="rgb(0,0,0)" stroke-linejoin="miter" stroke-linecap="butt" stroke-miterlimit="3"/></clipPath><g clip-path="url(#_clipPath_ecT7uK6Yq40tUXBpd3UMg1IRUNjosgsn)"><path d=" M 1236.394 336.99 L 1240.935 342.17 L 1235.078 344.71 L 1239.181 348.716 L 1233.266 351.471 L 1238.236 356.105 L 1233.855 357.002 L 1236.804 361.45 L 1232.561 361.831 C 1228.413 360.047 1225.815 356.925 1224.79 352.502 C 1223.531 347.067 1225.917 342.873 1229.121 340.204 C 1230.68 338.905 1233.993 337.471 1236.394 336.99 Z " fill="rgb(0,0,0)"/><path d=" M 1209.7 342.827 C 1210.227 340.861 1212.251 339.693 1214.217 340.219 C 1216.183 340.746 1217.351 342.77 1216.824 344.736 C 1216.297 346.702 1214.274 347.87 1212.308 347.343 C 1210.342 346.816 1209.174 344.793 1209.7 342.827 Z " fill="rgb(0,0,0)"/></g><path d=" M 1224.86 363.259 L 1194.017 354.995 L 1202.23 324.344 L 1234.757 333.06 L 1240.954 334.72 L 1235.23 337.168 L 1240.004 341.954 L 1232.964 344.589 L 1238.25 348.5 L 1230.994 351.94 L 1235.382 355.516 L 1229.965 356.816 L 1235.83 361.221 L 1229.8 361.596 L 1230.898 364.877 L 1224.86 363.259 Z " fill="transparent" mask="url(#_mask_9IMr53vC4J5ihlot5ysvFTanzZdcnz49)" vector-effect="non-scaling-stroke" stroke-width="6" stroke="rgb(0,0,0)" stroke-linejoin="miter" stroke-linecap="butt" stroke-miterlimit="3"/><path d=" M 1242.417 342.539 L 1241.874 344.431 L 1244.903 343.314 L 1242.417 342.539 Z " fill="rgb(227,121,121)"/><path d=" M 1239.614 345.755 L 1242.424 347.842 Q 1239.674 348.112 1241.961 350.036 L 1239.159 351.347 Q 1236.685 348.355 1239.614 345.755 Z " fill="rgb(227,121,121)"/><path d=" M 1236.018 354.74 Q 1236.075 354.209 1237.597 353.464 L 1241.972 357.014 L 1238.082 357.949 L 1238.345 357.147 C 1237.259 356.625 1236.481 355.841 1236.018 354.74 Z " fill="rgb(227,121,121)"/><path d=" M 1237.81 358.964 L 1237.66 359.523 L 1237.868 360.015 L 1239.891 360.493 L 1237.81 358.964 Z " fill="rgb(227,121,121)"/></g></g><mask id="_mask_HNSF1FvKQuZWOmejoqCeUfCUP2iMSYKS"><path d=" M 1180.462 427.168 L 1180.462 381.408 L 1180.462 381.408 Q 1180.462 380 1181.134 379.52 L 1181.134 379.52 L 1181.134 379.52 Q 1181.806 379.04 1183.726 379.04 L 1183.726 379.04 L 1183.726 379.04 Q 1188.334 379.04 1188.398 381.344 L 1188.398 381.344 L 1189.358 400.544 L 1189.422 420.448 L 1201.838 420.448 L 1201.838 420.448 Q 1204.974 420.448 1204.974 422.752 L 1204.974 422.752 L 1204.974 422.752 Q 1204.974 426.912 1203.758 427.744 L 1203.758 427.744 L 1203.758 427.744 Q 1203.118 428.192 1202.094 428.192 L 1202.094 428.192 L 1181.486 428.192 L 1180.462 427.168 Z  M 1207.79 412.192 L 1207.79 412.192 L 1207.79 412.192 Q 1207.79 405.216 1209.006 401.632 L 1209.006 401.632 L 1209.006 401.632 Q 1210.222 398.048 1212.846 396.736 L 1212.846 396.736 L 1212.846 396.736 Q 1215.47 395.424 1220.59 395.424 L 1220.59 395.424 L 1220.59 395.424 Q 1225.71 395.424 1228.334 396.736 L 1228.334 396.736 L 1228.334 396.736 Q 1230.958 398.048 1232.174 401.632 L 1232.174 401.632 L 1232.174 401.632 Q 1233.39 405.216 1233.39 412.192 L 1233.39 412.192 L 1233.39 412.192 Q 1233.39 421.792 1230.638 425.504 L 1230.638 425.504 L 1230.638 425.504 Q 1227.886 429.216 1220.59 429.216 L 1220.59 429.216 L 1220.59 429.216 Q 1213.294 429.216 1210.542 425.504 L 1210.542 425.504 L 1210.542 425.504 Q 1207.79 421.792 1207.79 412.192 Z  M 1216.494 412.192 L 1216.494 412.192 L 1216.494 412.192 Q 1216.494 422.944 1218.542 422.944 L 1218.542 422.944 L 1218.542 422.944 Q 1221.358 422.944 1222.702 422.048 L 1222.702 422.048 L 1222.702 422.048 Q 1223.406 421.536 1223.662 420.192 L 1223.662 420.192 L 1223.662 420.192 Q 1224.174 417.504 1224.174 412.192 L 1224.174 412.192 L 1224.174 412.192 Q 1224.174 401.568 1222.126 401.568 L 1222.126 401.568 L 1222.126 401.568 Q 1218.286 401.568 1217.39 403.328 L 1217.39 403.328 L 1217.39 403.328 Q 1216.494 405.088 1216.494 412.192 Z  M 1256.43 404 L 1256.43 404 L 1256.046 403.872 L 1253.614 402.656 L 1253.614 402.656 Q 1250.862 401.568 1248.878 401.568 L 1248.878 401.568 L 1248.878 401.568 Q 1245.998 401.696 1245.998 404.32 L 1245.998 404.32 L 1245.998 404.32 Q 1245.998 405.344 1247.118 405.984 L 1247.118 405.984 L 1247.118 405.984 Q 1248.238 406.624 1248.942 406.976 L 1248.942 406.976 L 1248.942 406.976 Q 1249.646 407.328 1250.99 407.968 L 1250.99 407.968 L 1250.99 407.968 Q 1255.79 410.016 1258.126 412.512 L 1258.126 412.512 L 1258.126 412.512 Q 1260.462 415.008 1260.462 417.44 L 1260.462 417.44 L 1260.462 417.44 Q 1260.462 422.752 1257.646 425.984 L 1257.646 425.984 L 1257.646 425.984 Q 1254.83 429.216 1249.998 429.216 L 1249.998 429.216 L 1249.998 429.216 Q 1245.166 429.216 1242.414 427.936 L 1242.414 427.936 L 1242.414 427.936 Q 1239.662 426.656 1237.806 424.288 L 1237.806 424.288 L 1237.806 424.288 Q 1237.55 424.16 1237.55 423.904 L 1237.55 423.904 L 1237.55 423.904 Q 1237.55 423.648 1237.646 423.264 L 1237.646 423.264 L 1237.646 423.264 Q 1237.742 422.88 1239.15 421.184 L 1239.15 421.184 L 1239.15 421.184 Q 1240.558 419.488 1241.39 419.488 L 1241.39 419.488 L 1241.39 419.488 Q 1241.646 419.488 1241.902 419.744 L 1241.902 419.744 L 1241.902 419.744 Q 1245.294 422.432 1248.494 422.432 L 1248.494 422.432 L 1248.494 422.432 Q 1250.286 422.432 1251.182 421.408 L 1251.182 421.408 L 1251.182 421.408 Q 1252.078 420.384 1252.078 419.168 L 1252.078 419.168 L 1252.078 419.168 Q 1252.078 417.952 1251.054 417.184 L 1251.054 417.184 L 1251.054 417.184 Q 1250.03 416.416 1248.526 415.68 L 1248.526 415.68 L 1248.526 415.68 Q 1247.022 414.944 1246.894 414.88 L 1246.894 414.88 L 1246.894 414.88 Q 1246.766 414.816 1246.542 414.688 L 1246.542 414.688 L 1246.542 414.688 Q 1246.318 414.56 1246.126 414.496 L 1246.126 414.496 L 1246.126 414.496 Q 1242.862 412.896 1240.59 410.496 L 1240.59 410.496 L 1240.59 410.496 Q 1238.318 408.096 1238.318 405.152 L 1238.318 405.152 L 1238.318 405.152 Q 1238.318 400.032 1240.974 397.728 L 1240.974 397.728 L 1240.974 397.728 Q 1243.63 395.424 1249.39 395.424 L 1249.39 395.424 L 1249.39 395.424 Q 1251.566 395.424 1253.55 395.936 L 1253.55 395.936 L 1253.55 395.936 Q 1256.238 396.64 1257.39 397.6 L 1257.39 397.6 L 1257.454 397.6 L 1257.454 397.6 Q 1257.966 397.92 1258.062 398.368 L 1258.062 398.368 L 1258.062 398.368 Q 1258.158 398.816 1257.966 400.288 L 1257.966 400.288 L 1257.966 400.288 Q 1257.326 404 1256.43 404 Z  M 1276.846 429.216 L 1276.846 429.216 L 1276.846 429.216 Q 1269.998 429.216 1267.342 425.504 L 1267.342 425.504 L 1267.342 425.504 Q 1264.686 421.792 1264.686 412.192 L 1264.686 412.192 L 1264.686 412.192 Q 1264.686 405.28 1265.902 401.664 L 1265.902 401.664 L 1265.902 401.664 Q 1267.118 398.048 1269.582 396.736 L 1269.582 396.736 L 1269.582 396.736 Q 1272.046 395.424 1276.846 395.424 L 1276.846 395.424 L 1276.846 395.424 Q 1281.646 395.424 1284.11 396.768 L 1284.11 396.768 L 1284.11 396.768 Q 1286.574 398.112 1287.726 401.76 L 1287.726 401.76 L 1287.726 401.76 Q 1288.878 405.408 1288.878 412.128 L 1288.878 412.128 L 1288.878 412.128 Q 1288.878 412.512 1288.878 412.896 L 1288.878 412.896 L 1288.878 412.896 Q 1288.878 413.28 1287.374 413.6 L 1287.374 413.6 L 1287.374 413.6 Q 1285.87 413.92 1283.758 413.92 L 1283.758 413.92 L 1273.902 413.92 L 1273.902 413.92 Q 1274.03 421.408 1274.99 422.432 L 1274.99 422.432 L 1274.99 422.432 Q 1275.566 422.944 1276.846 422.944 L 1276.846 422.944 L 1276.846 422.944 Q 1285.23 422.944 1288.302 422.112 L 1288.302 422.112 L 1288.302 422.112 Q 1288.43 422.048 1288.494 422.048 L 1288.494 422.048 L 1288.494 422.048 Q 1288.942 421.92 1289.23 422.56 L 1289.23 422.56 L 1289.23 422.56 Q 1289.518 423.2 1289.518 425.568 L 1289.518 425.568 L 1289.518 425.568 Q 1289.518 427.936 1288.494 428.192 L 1288.494 428.192 L 1288.494 428.192 Q 1285.87 429.216 1276.846 429.216 Z  M 1273.902 403.808 L 1273.902 403.808 L 1273.902 408.8 L 1280.366 408.8 L 1280.366 408.8 Q 1280.11 401.376 1278.894 401.376 L 1278.894 401.376 L 1278.894 401.376 Q 1276.718 401.376 1275.31 402.016 L 1275.31 402.016 L 1275.31 402.016 Q 1273.902 402.656 1273.902 403.808 Z  M 1304.878 380.896 L 1305.902 381.92 L 1301.742 415.52 L 1295.406 414.816 L 1294.382 413.792 L 1295.406 394.144 L 1297.454 380.064 L 1304.878 380.896 Z  M 1297.454 429.216 L 1297.454 429.216 L 1297.454 429.216 Q 1292.846 429.216 1292.846 424.608 L 1292.846 424.608 L 1292.846 424.608 Q 1292.846 420 1297.454 420 L 1297.454 420 L 1297.454 420 Q 1302.062 420 1302.062 424.608 L 1302.062 424.608 L 1302.062 424.608 Q 1302.062 429.216 1297.454 429.216 Z " fill="white" stroke="none"/></mask><path d=" M 1180.462 427.168 L 1180.462 381.408 L 1180.462 381.408 Q 1180.462 380 1181.134 379.52 L 1181.134 379.52 L 1181.134 379.52 Q 1181.806 379.04 1183.726 379.04 L 1183.726 379.04 L 1183.726 379.04 Q 1188.334 379.04 1188.398 381.344 L 1188.398 381.344 L 1189.358 400.544 L 1189.422 420.448 L 1201.838 420.448 L 1201.838 420.448 Q 1204.974 420.448 1204.974 422.752 L 1204.974 422.752 L 1204.974 422.752 Q 1204.974 426.912 1203.758 427.744 L 1203.758 427.744 L 1203.758 427.744 Q 1203.118 428.192 1202.094 428.192 L 1202.094 428.192 L 1181.486 428.192 L 1180.462 427.168 Z  M 1207.79 412.192 L 1207.79 412.192 L 1207.79 412.192 Q 1207.79 405.216 1209.006 401.632 L 1209.006 401.632 L 1209.006 401.632 Q 1210.222 398.048 1212.846 396.736 L 1212.846 396.736 L 1212.846 396.736 Q 1215.47 395.424 1220.59 395.424 L 1220.59 395.424 L 1220.59 395.424 Q 1225.71 395.424 1228.334 396.736 L 1228.334 396.736 L 1228.334 396.736 Q 1230.958 398.048 1232.174 401.632 L 1232.174 401.632 L 1232.174 401.632 Q 1233.39 405.216 1233.39 412.192 L 1233.39 412.192 L 1233.39 412.192 Q 1233.39 421.792 1230.638 425.504 L 1230.638 425.504 L 1230.638 425.504 Q 1227.886 429.216 1220.59 429.216 L 1220.59 429.216 L 1220.59 429.216 Q 1213.294 429.216 1210.542 425.504 L 1210.542 425.504 L 1210.542 425.504 Q 1207.79 421.792 1207.79 412.192 Z  M 1216.494 412.192 L 1216.494 412.192 L 1216.494 412.192 Q 1216.494 422.944 1218.542 422.944 L 1218.542 422.944 L 1218.542 422.944 Q 1221.358 422.944 1222.702 422.048 L 1222.702 422.048 L 1222.702 422.048 Q 1223.406 421.536 1223.662 420.192 L 1223.662 420.192 L 1223.662 420.192 Q 1224.174 417.504 1224.174 412.192 L 1224.174 412.192 L 1224.174 412.192 Q 1224.174 401.568 1222.126 401.568 L 1222.126 401.568 L 1222.126 401.568 Q 1218.286 401.568 1217.39 403.328 L 1217.39 403.328 L 1217.39 403.328 Q 1216.494 405.088 1216.494 412.192 Z  M 1256.43 404 L 1256.43 404 L 1256.046 403.872 L 1253.614 402.656 L 1253.614 402.656 Q 1250.862 401.568 1248.878 401.568 L 1248.878 401.568 L 1248.878 401.568 Q 1245.998 401.696 1245.998 404.32 L 1245.998 404.32 L 1245.998 404.32 Q 1245.998 405.344 1247.118 405.984 L 1247.118 405.984 L 1247.118 405.984 Q 1248.238 406.624 1248.942 406.976 L 1248.942 406.976 L 1248.942 406.976 Q 1249.646 407.328 1250.99 407.968 L 1250.99 407.968 L 1250.99 407.968 Q 1255.79 410.016 1258.126 412.512 L 1258.126 412.512 L 1258.126 412.512 Q 1260.462 415.008 1260.462 417.44 L 1260.462 417.44 L 1260.462 417.44 Q 1260.462 422.752 1257.646 425.984 L 1257.646 425.984 L 1257.646 425.984 Q 1254.83 429.216 1249.998 429.216 L 1249.998 429.216 L 1249.998 429.216 Q 1245.166 429.216 1242.414 427.936 L 1242.414 427.936 L 1242.414 427.936 Q 1239.662 426.656 1237.806 424.288 L 1237.806 424.288 L 1237.806 424.288 Q 1237.55 424.16 1237.55 423.904 L 1237.55 423.904 L 1237.55 423.904 Q 1237.55 423.648 1237.646 423.264 L 1237.646 423.264 L 1237.646 423.264 Q 1237.742 422.88 1239.15 421.184 L 1239.15 421.184 L 1239.15 421.184 Q 1240.558 419.488 1241.39 419.488 L 1241.39 419.488 L 1241.39 419.488 Q 1241.646 419.488 1241.902 419.744 L 1241.902 419.744 L 1241.902 419.744 Q 1245.294 422.432 1248.494 422.432 L 1248.494 422.432 L 1248.494 422.432 Q 1250.286 422.432 1251.182 421.408 L 1251.182 421.408 L 1251.182 421.408 Q 1252.078 420.384 1252.078 419.168 L 1252.078 419.168 L 1252.078 419.168 Q 1252.078 417.952 1251.054 417.184 L 1251.054 417.184 L 1251.054 417.184 Q 1250.03 416.416 1248.526 415.68 L 1248.526 415.68 L 1248.526 415.68 Q 1247.022 414.944 1246.894 414.88 L 1246.894 414.88 L 1246.894 414.88 Q 1246.766 414.816 1246.542 414.688 L 1246.542 414.688 L 1246.542 414.688 Q 1246.318 414.56 1246.126 414.496 L 1246.126 414.496 L 1246.126 414.496 Q 1242.862 412.896 1240.59 410.496 L 1240.59 410.496 L 1240.59 410.496 Q 1238.318 408.096 1238.318 405.152 L 1238.318 405.152 L 1238.318 405.152 Q 1238.318 400.032 1240.974 397.728 L 1240.974 397.728 L 1240.974 397.728 Q 1243.63 395.424 1249.39 395.424 L 1249.39 395.424 L 1249.39 395.424 Q 1251.566 395.424 1253.55 395.936 L 1253.55 395.936 L 1253.55 395.936 Q 1256.238 396.64 1257.39 397.6 L 1257.39 397.6 L 1257.454 397.6 L 1257.454 397.6 Q 1257.966 397.92 1258.062 398.368 L 1258.062 398.368 L 1258.062 398.368 Q 1258.158 398.816 1257.966 400.288 L 1257.966 400.288 L 1257.966 400.288 Q 1257.326 404 1256.43 404 Z  M 1276.846 429.216 L 1276.846 429.216 L 1276.846 429.216 Q 1269.998 429.216 1267.342 425.504 L 1267.342 425.504 L 1267.342 425.504 Q 1264.686 421.792 1264.686 412.192 L 1264.686 412.192 L 1264.686 412.192 Q 1264.686 405.28 1265.902 401.664 L 1265.902 401.664 L 1265.902 401.664 Q 1267.118 398.048 1269.582 396.736 L 1269.582 396.736 L 1269.582 396.736 Q 1272.046 395.424 1276.846 395.424 L 1276.846 395.424 L 1276.846 395.424 Q 1281.646 395.424 1284.11 396.768 L 1284.11 396.768 L 1284.11 396.768 Q 1286.574 398.112 1287.726 401.76 L 1287.726 401.76 L 1287.726 401.76 Q 1288.878 405.408 1288.878 412.128 L 1288.878 412.128 L 1288.878 412.128 Q 1288.878 412.512 1288.878 412.896 L 1288.878 412.896 L 1288.878 412.896 Q 1288.878 413.28 1287.374 413.6 L 1287.374 413.6 L 1287.374 413.6 Q 1285.87 413.92 1283.758 413.92 L 1283.758 413.92 L 1273.902 413.92 L 1273.902 413.92 Q 1274.03 421.408 1274.99 422.432 L 1274.99 422.432 L 1274.99 422.432 Q 1275.566 422.944 1276.846 422.944 L 1276.846 422.944 L 1276.846 422.944 Q 1285.23 422.944 1288.302 422.112 L 1288.302 422.112 L 1288.302 422.112 Q 1288.43 422.048 1288.494 422.048 L 1288.494 422.048 L 1288.494 422.048 Q 1288.942 421.92 1289.23 422.56 L 1289.23 422.56 L 1289.23 422.56 Q 1289.518 423.2 1289.518 425.568 L 1289.518 425.568 L 1289.518 425.568 Q 1289.518 427.936 1288.494 428.192 L 1288.494 428.192 L 1288.494 428.192 Q 1285.87 429.216 1276.846 429.216 Z  M 1273.902 403.808 L 1273.902 403.808 L 1273.902 408.8 L 1280.366 408.8 L 1280.366 408.8 Q 1280.11 401.376 1278.894 401.376 L 1278.894 401.376 L 1278.894 401.376 Q 1276.718 401.376 1275.31 402.016 L 1275.31 402.016 L 1275.31 402.016 Q 1273.902 402.656 1273.902 403.808 Z  M 1304.878 380.896 L 1305.902 381.92 L 1301.742 415.52 L 1295.406 414.816 L 1294.382 413.792 L 1295.406 394.144 L 1297.454 380.064 L 1304.878 380.896 Z  M 1297.454 429.216 L 1297.454 429.216 L 1297.454 429.216 Q 1292.846 429.216 1292.846 424.608 L 1292.846 424.608 L 1292.846 424.608 Q 1292.846 420 1297.454 420 L 1297.454 420 L 1297.454 420 Q 1302.062 420 1302.062 424.608 L 1302.062 424.608 L 1302.062 424.608 Q 1302.062 429.216 1297.454 429.216 Z " fill="rgb(227,121,121)"/><path d=" M 1180.462 427.168 L 1180.462 381.408 L 1180.462 381.408 Q 1180.462 380 1181.134 379.52 L 1181.134 379.52 L 1181.134 379.52 Q 1181.806 379.04 1183.726 379.04 L 1183.726 379.04 L 1183.726 379.04 Q 1188.334 379.04 1188.398 381.344 L 1188.398 381.344 L 1189.358 400.544 L 1189.422 420.448 L 1201.838 420.448 L 1201.838 420.448 Q 1204.974 420.448 1204.974 422.752 L 1204.974 422.752 L 1204.974 422.752 Q 1204.974 426.912 1203.758 427.744 L 1203.758 427.744 L 1203.758 427.744 Q 1203.118 428.192 1202.094 428.192 L 1202.094 428.192 L 1181.486 428.192 L 1180.462 427.168 Z  M 1207.79 412.192 L 1207.79 412.192 L 1207.79 412.192 Q 1207.79 405.216 1209.006 401.632 L 1209.006 401.632 L 1209.006 401.632 Q 1210.222 398.048 1212.846 396.736 L 1212.846 396.736 L 1212.846 396.736 Q 1215.47 395.424 1220.59 395.424 L 1220.59 395.424 L 1220.59 395.424 Q 1225.71 395.424 1228.334 396.736 L 1228.334 396.736 L 1228.334 396.736 Q 1230.958 398.048 1232.174 401.632 L 1232.174 401.632 L 1232.174 401.632 Q 1233.39 405.216 1233.39 412.192 L 1233.39 412.192 L 1233.39 412.192 Q 1233.39 421.792 1230.638 425.504 L 1230.638 425.504 L 1230.638 425.504 Q 1227.886 429.216 1220.59 429.216 L 1220.59 429.216 L 1220.59 429.216 Q 1213.294 429.216 1210.542 425.504 L 1210.542 425.504 L 1210.542 425.504 Q 1207.79 421.792 1207.79 412.192 Z  M 1216.494 412.192 L 1216.494 412.192 L 1216.494 412.192 Q 1216.494 422.944 1218.542 422.944 L 1218.542 422.944 L 1218.542 422.944 Q 1221.358 422.944 1222.702 422.048 L 1222.702 422.048 L 1222.702 422.048 Q 1223.406 421.536 1223.662 420.192 L 1223.662 420.192 L 1223.662 420.192 Q 1224.174 417.504 1224.174 412.192 L 1224.174 412.192 L 1224.174 412.192 Q 1224.174 401.568 1222.126 401.568 L 1222.126 401.568 L 1222.126 401.568 Q 1218.286 401.568 1217.39 403.328 L 1217.39 403.328 L 1217.39 403.328 Q 1216.494 405.088 1216.494 412.192 Z  M 1256.43 404 L 1256.43 404 L 1256.046 403.872 L 1253.614 402.656 L 1253.614 402.656 Q 1250.862 401.568 1248.878 401.568 L 1248.878 401.568 L 1248.878 401.568 Q 1245.998 401.696 1245.998 404.32 L 1245.998 404.32 L 1245.998 404.32 Q 1245.998 405.344 1247.118 405.984 L 1247.118 405.984 L 1247.118 405.984 Q 1248.238 406.624 1248.942 406.976 L 1248.942 406.976 L 1248.942 406.976 Q 1249.646 407.328 1250.99 407.968 L 1250.99 407.968 L 1250.99 407.968 Q 1255.79 410.016 1258.126 412.512 L 1258.126 412.512 L 1258.126 412.512 Q 1260.462 415.008 1260.462 417.44 L 1260.462 417.44 L 1260.462 417.44 Q 1260.462 422.752 1257.646 425.984 L 1257.646 425.984 L 1257.646 425.984 Q 1254.83 429.216 1249.998 429.216 L 1249.998 429.216 L 1249.998 429.216 Q 1245.166 429.216 1242.414 427.936 L 1242.414 427.936 L 1242.414 427.936 Q 1239.662 426.656 1237.806 424.288 L 1237.806 424.288 L 1237.806 424.288 Q 1237.55 424.16 1237.55 423.904 L 1237.55 423.904 L 1237.55 423.904 Q 1237.55 423.648 1237.646 423.264 L 1237.646 423.264 L 1237.646 423.264 Q 1237.742 422.88 1239.15 421.184 L 1239.15 421.184 L 1239.15 421.184 Q 1240.558 419.488 1241.39 419.488 L 1241.39 419.488 L 1241.39 419.488 Q 1241.646 419.488 1241.902 419.744 L 1241.902 419.744 L 1241.902 419.744 Q 1245.294 422.432 1248.494 422.432 L 1248.494 422.432 L 1248.494 422.432 Q 1250.286 422.432 1251.182 421.408 L 1251.182 421.408 L 1251.182 421.408 Q 1252.078 420.384 1252.078 419.168 L 1252.078 419.168 L 1252.078 419.168 Q 1252.078 417.952 1251.054 417.184 L 1251.054 417.184 L 1251.054 417.184 Q 1250.03 416.416 1248.526 415.68 L 1248.526 415.68 L 1248.526 415.68 Q 1247.022 414.944 1246.894 414.88 L 1246.894 414.88 L 1246.894 414.88 Q 1246.766 414.816 1246.542 414.688 L 1246.542 414.688 L 1246.542 414.688 Q 1246.318 414.56 1246.126 414.496 L 1246.126 414.496 L 1246.126 414.496 Q 1242.862 412.896 1240.59 410.496 L 1240.59 410.496 L 1240.59 410.496 Q 1238.318 408.096 1238.318 405.152 L 1238.318 405.152 L 1238.318 405.152 Q 1238.318 400.032 1240.974 397.728 L 1240.974 397.728 L 1240.974 397.728 Q 1243.63 395.424 1249.39 395.424 L 1249.39 395.424 L 1249.39 395.424 Q 1251.566 395.424 1253.55 395.936 L 1253.55 395.936 L 1253.55 395.936 Q 1256.238 396.64 1257.39 397.6 L 1257.39 397.6 L 1257.454 397.6 L 1257.454 397.6 Q 1257.966 397.92 1258.062 398.368 L 1258.062 398.368 L 1258.062 398.368 Q 1258.158 398.816 1257.966 400.288 L 1257.966 400.288 L 1257.966 400.288 Q 1257.326 404 1256.43 404 Z  M 1276.846 429.216 L 1276.846 429.216 L 1276.846 429.216 Q 1269.998 429.216 1267.342 425.504 L 1267.342 425.504 L 1267.342 425.504 Q 1264.686 421.792 1264.686 412.192 L 1264.686 412.192 L 1264.686 412.192 Q 1264.686 405.28 1265.902 401.664 L 1265.902 401.664 L 1265.902 401.664 Q 1267.118 398.048 1269.582 396.736 L 1269.582 396.736 L 1269.582 396.736 Q 1272.046 395.424 1276.846 395.424 L 1276.846 395.424 L 1276.846 395.424 Q 1281.646 395.424 1284.11 396.768 L 1284.11 396.768 L 1284.11 396.768 Q 1286.574 398.112 1287.726 401.76 L 1287.726 401.76 L 1287.726 401.76 Q 1288.878 405.408 1288.878 412.128 L 1288.878 412.128 L 1288.878 412.128 Q 1288.878 412.512 1288.878 412.896 L 1288.878 412.896 L 1288.878 412.896 Q 1288.878 413.28 1287.374 413.6 L 1287.374 413.6 L 1287.374 413.6 Q 1285.87 413.92 1283.758 413.92 L 1283.758 413.92 L 1273.902 413.92 L 1273.902 413.92 Q 1274.03 421.408 1274.99 422.432 L 1274.99 422.432 L 1274.99 422.432 Q 1275.566 422.944 1276.846 422.944 L 1276.846 422.944 L 1276.846 422.944 Q 1285.23 422.944 1288.302 422.112 L 1288.302 422.112 L 1288.302 422.112 Q 1288.43 422.048 1288.494 422.048 L 1288.494 422.048 L 1288.494 422.048 Q 1288.942 421.92 1289.23 422.56 L 1289.23 422.56 L 1289.23 422.56 Q 1289.518 423.2 1289.518 425.568 L 1289.518 425.568 L 1289.518 425.568 Q 1289.518 427.936 1288.494 428.192 L 1288.494 428.192 L 1288.494 428.192 Q 1285.87 429.216 1276.846 429.216 Z  M 1273.902 403.808 L 1273.902 403.808 L 1273.902 408.8 L 1280.366 408.8 L 1280.366 408.8 Q 1280.11 401.376 1278.894 401.376 L 1278.894 401.376 L 1278.894 401.376 Q 1276.718 401.376 1275.31 402.016 L 1275.31 402.016 L 1275.31 402.016 Q 1273.902 402.656 1273.902 403.808 Z  M 1304.878 380.896 L 1305.902 381.92 L 1301.742 415.52 L 1295.406 414.816 L 1294.382 413.792 L 1295.406 394.144 L 1297.454 380.064 L 1304.878 380.896 Z  M 1297.454 429.216 L 1297.454 429.216 L 1297.454 429.216 Q 1292.846 429.216 1292.846 424.608 L 1292.846 424.608 L 1292.846 424.608 Q 1292.846 420 1297.454 420 L 1297.454 420 L 1297.454 420 Q 1302.062 420 1302.062 424.608 L 1302.062 424.608 L 1302.062 424.608 Q 1302.062 429.216 1297.454 429.216 Z " fill="rgb(227,121,121)" mask="url(#_mask_HNSF1FvKQuZWOmejoqCeUfCUP2iMSYKS)" vector-effect="non-scaling-stroke" stroke-width="2" stroke="rgb(0,0,0)" stroke-linejoin="miter" stroke-linecap="square" stroke-miterlimit="3"/></g></svg>