<?xml version="1.0" encoding="UTF-8" standalone="no"?><!-- Generator: Gravit.io --><svg xmlns="http://www.w3.org/2000/svg" xmlns:xlink="http://www.w3.org/1999/xlink" style="isolation:isolate" viewBox="1359.279 330.5 202.943 109.528" width="202.943pt" height="109.528pt"><g><g><rect x="1362.974" y="383.074" width="69.111" height="38.011" transform="matrix(-0.733,-0.681,0.681,-0.733,2147.58,1647.946)" fill="rgb(255,255,255)"/><path d=" M 1435.781 411.68 L 1385.154 364.635 L 1359.279 392.48 L 1409.906 439.525 L 1435.781 411.68 Z  M 1364.162 392.301 L 1385.333 369.519 L 1430.897 411.859 L 1409.727 434.642 L 1364.162 392.301 Z " fill="rgb(0,0,0)"/><path d=" M 1415.249 418.546 C 1413.951 419.943 1411.763 420.023 1410.366 418.725 C 1408.969 417.427 1408.888 415.239 1410.187 413.841 C 1411.485 412.444 1413.673 412.364 1415.07 413.662 C 1416.467 414.961 1416.547 417.149 1415.249 418.546 Z " fill="rgb(0,0,0)"/><path d=" M 1384.873 390.319 C 1383.575 391.716 1381.386 391.796 1379.989 390.498 C 1378.592 389.2 1378.512 387.011 1379.81 385.614 C 1381.108 384.217 1383.297 384.137 1384.694 385.435 C 1386.091 386.733 1386.171 388.922 1384.873 390.319 Z " fill="rgb(0,0,0)"/><path d=" M 1406.389 410.313 C 1401.846 415.203 1394.187 415.484 1389.297 410.94 C 1384.407 406.396 1384.126 398.737 1388.67 393.847 C 1393.214 388.957 1400.873 388.676 1405.763 393.22 C 1410.652 397.764 1410.933 405.423 1406.389 410.313 Z " fill="rgb(0,0,0)"/><g><path d=" M 1368.879 395.294 C 1367.198 397.103 1364.365 397.206 1362.556 395.526 C 1360.747 393.845 1360.643 391.011 1362.324 389.202 C 1364.005 387.393 1366.838 387.29 1368.647 388.971 C 1370.456 390.651 1370.56 393.485 1368.879 395.294 Z " fill="rgb(0,0,0)"/><path d=" M 1388.663 374.004 C 1386.982 375.813 1384.149 375.917 1382.34 374.236 C 1380.531 372.555 1380.427 369.721 1382.108 367.912 C 1383.789 366.104 1386.622 366 1388.431 367.681 C 1390.24 369.361 1390.344 372.195 1388.663 374.004 Z " fill="rgb(0,0,0)"/><path d=" M 1412.951 436.248 C 1411.271 438.057 1408.437 438.161 1406.628 436.48 C 1404.819 434.799 1404.715 431.965 1406.396 430.157 C 1408.077 428.348 1410.911 428.244 1412.72 429.925 C 1414.529 431.606 1414.632 434.439 1412.951 436.248 Z " fill="rgb(0,0,0)"/><path d=" M 1432.735 414.958 C 1431.054 416.767 1428.221 416.871 1426.412 415.19 C 1424.603 413.509 1424.499 410.676 1426.18 408.867 C 1427.861 407.058 1430.694 406.954 1432.503 408.635 C 1434.312 410.316 1434.416 413.149 1432.735 414.958 Z " fill="rgb(0,0,0)"/></g><path d=" M 1396.399 404.913 L 1396.399 404.913 L 1396.399 404.913 Q 1396.654 404.639 1396.514 404.188 L 1396.514 404.188 L 1396.514 404.188 Q 1396.373 403.738 1396.272 403.468 L 1396.272 403.468 L 1396.272 403.468 Q 1396.171 403.199 1395.953 402.676 L 1395.953 402.676 L 1395.953 402.676 Q 1395.194 400.948 1395.189 399.697 L 1395.189 399.697 L 1395.189 399.697 Q 1395.185 398.447 1395.79 397.795 L 1395.79 397.795 L 1395.79 397.795 Q 1396.779 396.731 1397.933 396.366 L 1397.933 396.366 L 1397.933 396.366 Q 1399.088 396.001 1400.213 396.407 L 1400.213 396.407 L 1402.252 394.178 L 1404.379 396.155 L 1404.398 396.684 L 1402.693 398.519 L 1402.693 398.519 Q 1403.721 399.923 1403.568 401.602 L 1403.568 401.602 L 1403.568 401.602 Q 1403.604 401.7 1403.541 401.769 L 1403.541 401.769 L 1403.541 401.769 Q 1403.477 401.837 1403.356 401.916 L 1403.356 401.916 L 1403.356 401.916 Q 1403.234 401.995 1402.434 402.099 L 1402.434 402.099 L 1402.434 402.099 Q 1401.635 402.203 1401.412 401.996 L 1401.412 401.996 L 1401.412 401.996 Q 1401.343 401.932 1401.338 401.8 L 1401.338 401.8 L 1401.338 401.8 Q 1401.099 400.234 1400.241 399.438 L 1400.241 399.438 L 1400.241 399.438 Q 1399.761 398.991 1399.266 399.043 L 1399.266 399.043 L 1399.266 399.043 Q 1398.77 399.094 1398.468 399.42 L 1398.468 399.42 L 1398.468 399.42 Q 1398.165 399.746 1398.248 400.206 L 1398.248 400.206 L 1398.248 400.206 Q 1398.331 400.667 1398.551 401.239 L 1398.551 401.239 L 1398.551 401.239 Q 1398.771 401.811 1398.789 401.86 L 1398.789 401.86 L 1398.789 401.86 Q 1398.807 401.909 1398.836 401.999 L 1398.836 401.999 L 1398.836 401.999 Q 1398.864 402.089 1398.899 402.154 L 1398.899 402.154 L 1398.899 402.154 Q 1399.376 403.396 1399.387 404.605 L 1399.387 404.605 L 1399.387 404.605 Q 1399.398 405.814 1398.665 406.603 L 1398.665 406.603 L 1398.665 406.603 Q 1397.613 407.735 1396.567 407.898 L 1396.567 407.898 L 1396.567 407.898 Q 1395.521 408.06 1394.349 407.291 L 1394.349 407.291 L 1392.259 409.472 L 1390.355 407.703 L 1390.336 407.173 L 1392.216 405.149 L 1392.216 405.149 Q 1391.775 404.42 1391.673 403.877 L 1391.673 403.877 L 1391.655 403.861 L 1391.655 403.861 Q 1391.598 403.648 1391.684 403.504 L 1391.684 403.504 L 1391.684 403.504 Q 1391.77 403.36 1392.188 403.013 L 1392.188 403.013 L 1392.188 403.013 Q 1393.284 402.178 1393.524 402.401 L 1393.524 402.401 L 1393.524 402.401 Q 1393.575 402.449 1393.595 402.531 L 1393.595 402.531 L 1393.944 403.462 L 1393.944 403.462 Q 1394.41 404.439 1394.942 404.934 L 1394.942 404.934 L 1394.942 404.934 Q 1395.746 405.616 1396.399 404.913 Z " fill="rgb(165,214,167)"/></g><g><rect x="1379.974" y="366.074" width="69.111" height="38.011" transform="matrix(-0.48,-0.877,0.877,-0.48,1755.035,1810.996)" fill="rgb(255,255,255)"/><path d=" M 1447.78 406.287 L 1414.634 345.643 L 1381.28 363.873 L 1414.425 424.517 L 1447.78 406.287 Z  M 1385.969 365.248 L 1413.259 350.332 L 1443.09 404.912 L 1415.8 419.828 L 1385.969 365.248 Z " fill="rgb(0,0,0)"/><path d=" M 1426.131 406.306 C 1424.457 407.22 1422.356 406.604 1421.441 404.931 C 1420.527 403.257 1421.143 401.156 1422.816 400.241 C 1424.49 399.327 1426.591 399.943 1427.506 401.616 C 1428.42 403.29 1427.804 405.391 1426.131 406.306 Z " fill="rgb(0,0,0)"/><path d=" M 1406.243 369.919 C 1404.57 370.834 1402.468 370.218 1401.554 368.544 C 1400.639 366.871 1401.255 364.769 1402.929 363.855 C 1404.602 362.94 1406.703 363.556 1407.618 365.23 C 1408.533 366.903 1407.917 369.004 1406.243 369.919 Z " fill="rgb(0,0,0)"/><path d=" M 1420.33 395.693 C 1414.473 398.894 1407.118 396.738 1403.917 390.881 C 1400.716 385.023 1402.872 377.669 1408.729 374.467 C 1414.587 371.266 1421.941 373.422 1425.142 379.28 C 1428.344 385.137 1426.188 392.492 1420.33 395.693 Z " fill="rgb(0,0,0)"/><g><path d=" M 1389.497 369.579 C 1387.33 370.764 1384.61 369.966 1383.425 367.799 C 1382.241 365.632 1383.039 362.912 1385.206 361.727 C 1387.372 360.543 1390.093 361.341 1391.277 363.507 C 1392.462 365.674 1391.664 368.395 1389.497 369.579 Z " fill="rgb(0,0,0)"/><path d=" M 1415 355.641 C 1412.833 356.825 1410.112 356.027 1408.928 353.86 C 1407.743 351.694 1408.541 348.973 1410.708 347.789 C 1412.875 346.604 1415.595 347.402 1416.78 349.569 C 1417.964 351.736 1417.166 354.456 1415 355.641 Z " fill="rgb(0,0,0)"/><path d=" M 1418.351 422.372 C 1416.185 423.556 1413.464 422.758 1412.28 420.591 C 1411.095 418.425 1411.893 415.704 1414.06 414.52 C 1416.227 413.335 1418.947 414.133 1420.132 416.3 C 1421.316 418.467 1420.518 421.187 1418.351 422.372 Z " fill="rgb(0,0,0)"/><path d=" M 1443.854 408.433 C 1441.687 409.617 1438.966 408.82 1437.782 406.653 C 1436.598 404.486 1437.395 401.765 1439.562 400.581 C 1441.729 399.397 1444.45 400.194 1445.634 402.361 C 1446.818 404.528 1446.021 407.249 1443.854 408.433 Z " fill="rgb(0,0,0)"/></g><path d=" M 1412.561 387.41 L 1412.561 387.41 L 1412.561 387.41 Q 1412.89 387.231 1412.899 386.759 L 1412.899 386.759 L 1412.899 386.759 Q 1412.908 386.287 1412.897 385.999 L 1412.897 385.999 L 1412.897 385.999 Q 1412.887 385.711 1412.845 385.147 L 1412.845 385.147 L 1412.845 385.147 Q 1412.672 383.267 1413.063 382.079 L 1413.063 382.079 L 1413.063 382.079 Q 1413.454 380.891 1414.235 380.465 L 1414.235 380.465 L 1414.235 380.465 Q 1415.509 379.768 1416.72 379.787 L 1416.72 379.787 L 1416.72 379.787 Q 1417.931 379.806 1418.87 380.547 L 1418.87 380.547 L 1421.509 379.078 L 1422.901 381.625 L 1422.752 382.134 L 1420.554 383.335 L 1420.554 383.335 Q 1421.086 384.992 1420.409 386.536 L 1420.409 386.536 L 1420.409 386.536 Q 1420.413 386.641 1420.331 386.686 L 1420.331 386.686 L 1420.331 386.686 Q 1420.248 386.731 1420.108 386.767 L 1420.108 386.767 L 1420.108 386.767 Q 1419.968 386.804 1419.177 386.65 L 1419.177 386.65 L 1419.177 386.65 Q 1418.385 386.495 1418.239 386.228 L 1418.239 386.228 L 1418.239 386.228 Q 1418.194 386.146 1418.231 386.019 L 1418.231 386.019 L 1418.231 386.019 Q 1418.499 384.458 1417.938 383.431 L 1417.938 383.431 L 1417.938 383.431 Q 1417.623 382.856 1417.137 382.748 L 1417.137 382.748 L 1417.137 382.748 Q 1416.651 382.64 1416.261 382.853 L 1416.261 382.853 L 1416.261 382.853 Q 1415.871 383.066 1415.804 383.53 L 1415.804 383.53 L 1415.804 383.53 Q 1415.737 383.993 1415.765 384.605 L 1415.765 384.605 L 1415.765 384.605 Q 1415.792 385.217 1415.794 385.27 L 1415.794 385.27 L 1415.794 385.27 Q 1415.796 385.322 1415.794 385.416 L 1415.794 385.416 L 1415.794 385.416 Q 1415.792 385.511 1415.805 385.584 L 1415.805 385.584 L 1415.805 385.584 Q 1415.865 386.912 1415.493 388.063 L 1415.493 388.063 L 1415.493 388.063 Q 1415.121 389.213 1414.176 389.73 L 1414.176 389.73 L 1414.176 389.73 Q 1412.82 390.471 1411.776 390.294 L 1411.776 390.294 L 1411.776 390.294 Q 1410.732 390.118 1409.864 389.018 L 1409.864 389.018 L 1407.191 390.425 L 1405.945 388.145 L 1406.094 387.636 L 1408.518 386.311 L 1408.518 386.311 Q 1408.331 385.48 1408.405 384.932 L 1408.405 384.932 L 1408.394 384.912 L 1408.394 384.912 Q 1408.407 384.691 1408.534 384.582 L 1408.534 384.582 L 1408.534 384.582 Q 1408.661 384.472 1409.167 384.276 L 1409.167 384.276 L 1409.167 384.276 Q 1410.471 383.83 1410.628 384.117 L 1410.628 384.117 L 1410.628 384.117 Q 1410.662 384.179 1410.654 384.263 L 1410.654 384.263 L 1410.691 385.257 L 1410.691 385.257 Q 1410.824 386.332 1411.172 386.969 L 1411.172 386.969 L 1411.172 386.969 Q 1411.719 387.871 1412.561 387.41 Z " fill="rgb(165,214,167)"/></g><g><rect x="1399.974" y="353.074" width="69.111" height="38.011" transform="matrix(-0.298,-0.954,0.954,-0.298,1507.212,1852.295)" fill="rgb(255,255,255)"/><path d=" M 1462.976 399.395 L 1442.365 333.429 L 1406.083 344.765 L 1426.695 410.731 L 1462.976 399.395 Z  M 1410.412 347.033 L 1440.097 337.758 L 1458.647 397.127 L 1428.962 406.403 L 1410.412 347.033 Z " fill="rgb(0,0,0)"/><path d=" M 1441.744 395.168 C 1439.923 395.737 1437.984 394.721 1437.415 392.901 C 1436.846 391.08 1437.862 389.141 1439.683 388.572 C 1441.503 388.003 1443.443 389.019 1444.011 390.839 C 1444.58 392.66 1443.564 394.6 1441.744 395.168 Z " fill="rgb(0,0,0)"/><path d=" M 1429.377 355.589 C 1427.556 356.157 1425.617 355.141 1425.048 353.321 C 1424.479 351.5 1425.495 349.561 1427.316 348.992 C 1429.136 348.423 1431.076 349.439 1431.645 351.26 C 1432.213 353.08 1431.197 355.02 1429.377 355.589 Z " fill="rgb(0,0,0)"/><path d=" M 1438.137 383.624 C 1431.765 385.615 1424.976 382.059 1422.986 375.687 C 1420.995 369.316 1424.551 362.527 1430.923 360.536 C 1437.294 358.545 1444.083 362.102 1446.074 368.473 C 1448.065 374.844 1444.508 381.633 1438.137 383.624 Z " fill="rgb(0,0,0)"/><g><path d=" M 1413.022 351.972 C 1410.665 352.708 1408.154 351.393 1407.418 349.036 C 1406.681 346.679 1407.997 344.167 1410.354 343.431 C 1412.711 342.694 1415.222 344.01 1415.959 346.367 C 1416.695 348.724 1415.379 351.235 1413.022 351.972 Z " fill="rgb(0,0,0)"/><path d=" M 1440.763 343.304 C 1438.406 344.041 1435.894 342.725 1435.158 340.368 C 1434.421 338.011 1435.737 335.5 1438.094 334.763 C 1440.451 334.027 1442.963 335.342 1443.699 337.699 C 1444.435 340.056 1443.12 342.568 1440.763 343.304 Z " fill="rgb(0,0,0)"/><path d=" M 1430.965 409.397 C 1428.608 410.134 1426.097 408.818 1425.36 406.461 C 1424.624 404.104 1425.94 401.592 1428.297 400.856 C 1430.654 400.12 1433.165 401.435 1433.901 403.792 C 1434.638 406.149 1433.322 408.661 1430.965 409.397 Z " fill="rgb(0,0,0)"/><path d=" M 1458.706 400.729 C 1456.349 401.466 1453.837 400.15 1453.101 397.793 C 1452.364 395.436 1453.68 392.925 1456.037 392.188 C 1458.394 391.452 1460.905 392.768 1461.642 395.125 C 1462.378 397.482 1461.063 399.993 1458.706 400.729 Z " fill="rgb(0,0,0)"/></g><path d=" M 1432.142 373.979 L 1432.142 373.979 L 1432.142 373.979 Q 1432.5 373.867 1432.601 373.406 L 1432.601 373.406 L 1432.601 373.406 Q 1432.703 372.945 1432.749 372.661 L 1432.749 372.661 L 1432.749 372.661 Q 1432.795 372.377 1432.865 371.815 L 1432.865 371.815 L 1432.865 371.815 Q 1433.063 369.938 1433.68 368.85 L 1433.68 368.85 L 1433.68 368.85 Q 1434.297 367.762 1435.146 367.497 L 1435.146 367.497 L 1435.146 367.497 Q 1436.531 367.064 1437.715 367.319 L 1437.715 367.319 L 1437.715 367.319 Q 1438.899 367.575 1439.674 368.486 L 1439.674 368.486 L 1442.55 367.563 L 1443.416 370.334 L 1443.17 370.803 L 1440.779 371.55 L 1440.779 371.55 Q 1440.976 373.28 1440.009 374.661 L 1440.009 374.661 L 1440.009 374.661 Q 1439.992 374.764 1439.903 374.792 L 1439.903 374.792 L 1439.903 374.792 Q 1439.814 374.82 1439.669 374.829 L 1439.669 374.829 L 1439.669 374.829 Q 1439.525 374.837 1438.779 374.53 L 1438.779 374.53 L 1438.779 374.53 Q 1438.033 374.224 1437.942 373.933 L 1437.942 373.933 L 1437.942 373.933 Q 1437.914 373.844 1437.976 373.726 L 1437.976 373.726 L 1437.976 373.726 Q 1438.544 372.249 1438.195 371.131 L 1438.195 371.131 L 1438.195 371.131 Q 1437.999 370.505 1437.544 370.304 L 1437.544 370.304 L 1437.544 370.304 Q 1437.089 370.103 1436.664 370.236 L 1436.664 370.236 L 1436.664 370.236 Q 1436.239 370.368 1436.083 370.81 L 1436.083 370.81 L 1436.083 370.81 Q 1435.927 371.251 1435.834 371.857 L 1435.834 371.857 L 1435.834 371.857 Q 1435.741 372.462 1435.732 372.514 L 1435.732 372.514 L 1435.732 372.514 Q 1435.724 372.566 1435.704 372.658 L 1435.704 372.658 L 1435.704 372.658 Q 1435.683 372.75 1435.682 372.824 L 1435.682 372.824 L 1435.682 372.824 Q 1435.479 374.138 1434.889 375.194 L 1434.889 375.194 L 1434.889 375.194 Q 1434.299 376.249 1433.271 376.57 L 1433.271 376.57 L 1433.271 376.57 Q 1431.796 377.031 1430.807 376.653 L 1430.807 376.653 L 1430.807 376.653 Q 1429.818 376.275 1429.183 375.026 L 1429.183 375.026 L 1426.286 375.883 L 1425.51 373.402 L 1425.756 372.933 L 1428.394 372.109 L 1428.394 372.109 Q 1428.373 371.256 1428.553 370.734 L 1428.553 370.734 L 1428.546 370.712 L 1428.546 370.712 Q 1428.602 370.498 1428.748 370.416 L 1428.748 370.416 L 1428.748 370.416 Q 1428.894 370.333 1429.429 370.24 L 1429.429 370.24 L 1429.429 370.24 Q 1430.795 370.058 1430.892 370.371 L 1430.892 370.371 L 1430.892 370.371 Q 1430.913 370.438 1430.89 370.519 L 1430.89 370.519 L 1430.73 371.501 L 1430.73 371.501 Q 1430.651 372.581 1430.867 373.274 L 1430.867 373.274 L 1430.867 373.274 Q 1431.226 374.265 1432.142 373.979 Z " fill="rgb(165,214,167)"/></g><g><rect x="1489.803" y="383.137" width="69.111" height="38.011" transform="matrix(-0.706,0.708,-0.708,-0.706,2885.785,-392.784)" fill="rgb(255,255,255)"/><path d=" M 1486.497 413.177 L 1535.316 364.258 L 1562.221 391.108 L 1513.402 440.028 L 1486.497 413.177 Z  M 1557.334 391.113 L 1535.321 369.145 L 1491.384 413.172 L 1513.397 435.141 L 1557.334 391.113 Z " fill="rgb(0,0,0)"/><path d=" M 1507.272 419.264 C 1508.622 420.612 1510.812 420.609 1512.159 419.259 C 1513.506 417.909 1513.504 415.72 1512.154 414.372 C 1510.804 413.025 1508.615 413.028 1507.267 414.378 C 1505.92 415.727 1505.922 417.917 1507.272 419.264 Z " fill="rgb(0,0,0)"/><path d=" M 1536.564 389.913 C 1537.914 391.26 1540.103 391.258 1541.451 389.908 C 1542.798 388.558 1542.796 386.368 1541.446 385.021 C 1540.096 383.674 1537.906 383.676 1536.559 385.026 C 1535.211 386.376 1535.214 388.566 1536.564 389.913 Z " fill="rgb(0,0,0)"/><path d=" M 1515.816 410.704 C 1520.541 415.419 1528.205 415.411 1532.92 410.686 C 1537.635 405.961 1537.627 398.297 1532.902 393.582 C 1528.177 388.867 1520.513 388.874 1515.798 393.599 C 1511.083 398.324 1511.091 405.988 1515.816 410.704 Z " fill="rgb(0,0,0)"/><g><path d=" M 1552.733 394.282 C 1554.481 396.026 1557.317 396.023 1559.061 394.275 C 1560.805 392.527 1560.802 389.692 1559.054 387.948 C 1557.306 386.203 1554.471 386.206 1552.727 387.954 C 1550.983 389.702 1550.986 392.537 1552.733 394.282 Z " fill="rgb(0,0,0)"/><path d=" M 1532.162 373.752 C 1533.91 375.496 1536.745 375.493 1538.489 373.746 C 1540.233 371.998 1540.23 369.162 1538.483 367.418 C 1536.735 365.674 1533.899 365.677 1532.155 367.425 C 1530.411 369.173 1530.414 372.008 1532.162 373.752 Z " fill="rgb(0,0,0)"/><path d=" M 1510.235 436.867 C 1511.983 438.611 1514.818 438.608 1516.563 436.861 C 1518.307 435.113 1518.304 432.277 1516.556 430.533 C 1514.808 428.789 1511.973 428.792 1510.229 430.54 C 1508.485 432.288 1508.487 435.123 1510.235 436.867 Z " fill="rgb(0,0,0)"/><path d=" M 1489.664 416.338 C 1491.412 418.082 1494.247 418.079 1495.991 416.331 C 1497.735 414.583 1497.732 411.748 1495.985 410.004 C 1494.237 408.259 1491.401 408.262 1489.657 410.01 C 1487.913 411.758 1487.916 414.593 1489.664 416.338 Z " fill="rgb(0,0,0)"/></g><path d=" M 1521.909 400.344 L 1521.909 400.344 L 1521.909 400.344 Q 1522.11 400.661 1522.582 400.639 L 1522.582 400.639 L 1522.582 400.639 Q 1523.053 400.617 1523.339 400.587 L 1523.339 400.587 L 1523.339 400.587 Q 1523.626 400.558 1524.186 400.48 L 1524.186 400.48 L 1524.186 400.48 Q 1526.051 400.183 1527.262 400.496 L 1527.262 400.496 L 1527.262 400.496 Q 1528.473 400.809 1528.949 401.56 L 1528.949 401.56 L 1528.949 401.56 Q 1529.728 402.786 1529.788 403.995 L 1529.788 403.995 L 1529.788 403.995 Q 1529.849 405.205 1529.171 406.19 L 1529.171 406.19 L 1530.81 408.728 L 1528.358 410.284 L 1527.841 410.168 L 1526.499 408.053 L 1526.499 408.053 Q 1524.88 408.693 1523.295 408.118 L 1523.295 408.118 L 1523.295 408.118 Q 1523.191 408.129 1523.14 408.05 L 1523.14 408.05 L 1523.14 408.05 Q 1523.09 407.971 1523.044 407.833 L 1523.044 407.833 L 1523.044 407.833 Q 1522.999 407.696 1523.101 406.896 L 1523.101 406.896 L 1523.101 406.896 Q 1523.203 406.096 1523.46 405.933 L 1523.46 405.933 L 1523.46 405.933 Q 1523.54 405.883 1523.669 405.911 L 1523.669 405.911 L 1523.669 405.911 Q 1525.244 406.077 1526.232 405.449 L 1526.232 405.449 L 1526.232 405.449 Q 1526.785 405.098 1526.861 404.606 L 1526.861 404.606 L 1526.861 404.606 Q 1526.937 404.114 1526.699 403.738 L 1526.699 403.738 L 1526.699 403.738 Q 1526.46 403.363 1525.994 403.326 L 1525.994 403.326 L 1525.994 403.326 Q 1525.527 403.29 1524.918 403.357 L 1524.918 403.357 L 1524.918 403.357 Q 1524.309 403.425 1524.257 403.43 L 1524.257 403.43 L 1524.257 403.43 Q 1524.205 403.436 1524.11 403.44 L 1524.11 403.44 L 1524.11 403.44 Q 1524.016 403.444 1523.944 403.462 L 1523.944 403.462 L 1523.944 403.462 Q 1522.622 403.608 1521.45 403.312 L 1521.45 403.312 L 1521.45 403.312 Q 1520.278 403.017 1519.7 402.107 L 1519.7 402.107 L 1519.7 402.107 Q 1518.872 400.803 1518.98 399.75 L 1518.98 399.75 L 1518.98 399.75 Q 1519.088 398.696 1520.129 397.758 L 1520.129 397.758 L 1518.549 395.183 L 1520.744 393.79 L 1521.261 393.906 L 1522.742 396.238 L 1522.742 396.238 Q 1523.559 395.997 1524.11 396.035 L 1524.11 396.035 L 1524.13 396.022 L 1524.13 396.022 Q 1524.351 396.021 1524.468 396.14 L 1524.468 396.14 L 1524.468 396.14 Q 1524.586 396.26 1524.815 396.752 L 1524.815 396.752 L 1524.815 396.752 Q 1525.345 398.024 1525.069 398.2 L 1525.069 398.2 L 1525.069 398.2 Q 1525.009 398.238 1524.925 398.236 L 1524.925 398.236 L 1523.935 398.337 L 1523.935 398.337 Q 1522.872 398.541 1522.259 398.93 L 1522.259 398.93 L 1522.259 398.93 Q 1521.395 399.534 1521.909 400.344 Z " fill="rgb(165,214,167)"/></g><g><rect x="1468.803" y="366.074" width="69.111" height="38.011" transform="matrix(-0.581,0.814,-0.814,-0.581,2689.821,-615.261)" fill="rgb(255,255,255)"/><path d=" M 1467.82 402.177 L 1507.951 345.911 L 1538.898 367.983 L 1498.767 424.249 L 1467.82 402.177 Z  M 1534.078 368.79 L 1508.758 350.731 L 1472.64 401.371 L 1497.96 419.429 L 1534.078 368.79 Z " fill="rgb(0,0,0)"/><path d=" M 1489.313 404.773 C 1490.866 405.881 1493.026 405.519 1494.133 403.967 C 1495.24 402.414 1494.879 400.254 1493.326 399.147 C 1491.774 398.039 1489.614 398.401 1488.506 399.954 C 1487.399 401.506 1487.76 403.666 1489.313 404.773 Z " fill="rgb(0,0,0)"/><path d=" M 1513.392 371.014 C 1514.944 372.121 1517.104 371.759 1518.212 370.207 C 1519.319 368.654 1518.957 366.494 1517.405 365.387 C 1515.852 364.279 1513.692 364.641 1512.585 366.194 C 1511.477 367.746 1511.839 369.906 1513.392 371.014 Z " fill="rgb(0,0,0)"/><path d=" M 1496.336 394.927 C 1501.771 398.803 1509.33 397.538 1513.206 392.103 C 1517.082 386.669 1515.816 379.11 1510.382 375.234 C 1504.947 371.357 1497.388 372.623 1493.512 378.057 C 1489.636 383.492 1490.902 391.051 1496.336 394.927 Z " fill="rgb(0,0,0)"/><g><path d=" M 1530.059 372.67 C 1532.069 374.104 1534.866 373.636 1536.3 371.625 C 1537.734 369.615 1537.265 366.819 1535.255 365.385 C 1533.245 363.951 1530.448 364.419 1529.014 366.429 C 1527.581 368.44 1528.049 371.236 1530.059 372.67 Z " fill="rgb(0,0,0)"/><path d=" M 1506.398 355.794 C 1508.408 357.228 1511.204 356.76 1512.638 354.75 C 1514.072 352.739 1513.604 349.943 1511.594 348.509 C 1509.583 347.075 1506.787 347.543 1505.353 349.554 C 1503.919 351.564 1504.387 354.36 1506.398 355.794 Z " fill="rgb(0,0,0)"/><path d=" M 1495.124 421.651 C 1497.135 423.085 1499.931 422.617 1501.365 420.607 C 1502.799 418.596 1502.331 415.8 1500.32 414.366 C 1498.31 412.932 1495.513 413.4 1494.08 415.411 C 1492.646 417.421 1493.114 420.217 1495.124 421.651 Z " fill="rgb(0,0,0)"/><path d=" M 1471.463 404.775 C 1473.473 406.209 1476.27 405.741 1477.703 403.731 C 1479.137 401.72 1478.669 398.924 1476.659 397.49 C 1474.648 396.056 1471.852 396.524 1470.418 398.535 C 1468.984 400.545 1469.452 403.341 1471.463 404.775 Z " fill="rgb(0,0,0)"/></g><path d=" M 1500.647 383.708 L 1500.647 383.708 L 1500.647 383.708 Q 1500.897 383.987 1501.359 383.888 L 1501.359 383.888 L 1501.359 383.888 Q 1501.82 383.789 1502.098 383.713 L 1502.098 383.713 L 1502.098 383.713 Q 1502.376 383.637 1502.916 383.468 L 1502.916 383.468 L 1502.916 383.468 Q 1504.706 382.87 1505.952 382.98 L 1505.952 382.98 L 1505.952 382.98 Q 1507.198 383.09 1507.792 383.753 L 1507.792 383.753 L 1507.792 383.753 Q 1508.76 384.834 1509.019 386.017 L 1509.019 386.017 L 1509.019 386.017 Q 1509.277 387.2 1508.77 388.283 L 1508.77 388.283 L 1510.803 390.518 L 1508.64 392.455 L 1508.111 392.426 L 1506.439 390.56 L 1506.439 390.56 Q 1504.947 391.456 1503.29 391.149 L 1503.29 391.149 L 1503.29 391.149 Q 1503.189 391.177 1503.126 391.107 L 1503.126 391.107 L 1503.126 391.107 Q 1503.064 391.037 1502.996 390.909 L 1502.996 390.909 L 1502.996 390.909 Q 1502.928 390.781 1502.898 389.975 L 1502.898 389.975 L 1502.898 389.975 Q 1502.868 389.169 1503.094 388.966 L 1503.094 388.966 L 1503.094 388.966 Q 1503.164 388.904 1503.296 388.911 L 1503.296 388.911 L 1503.296 388.911 Q 1504.877 388.816 1505.749 388.034 L 1505.749 388.034 L 1505.749 388.034 Q 1506.237 387.597 1506.232 387.099 L 1506.232 387.099 L 1506.232 387.099 Q 1506.226 386.601 1505.929 386.27 L 1505.929 386.27 L 1505.929 386.27 Q 1505.632 385.939 1505.166 385.979 L 1505.166 385.979 L 1505.166 385.979 Q 1504.699 386.02 1504.109 386.187 L 1504.109 386.187 L 1504.109 386.187 Q 1503.52 386.353 1503.469 386.367 L 1503.469 386.367 L 1503.469 386.367 Q 1503.419 386.381 1503.327 386.401 L 1503.327 386.401 L 1503.327 386.401 Q 1503.234 386.42 1503.166 386.45 L 1503.166 386.45 L 1503.166 386.45 Q 1501.886 386.811 1500.681 386.711 L 1500.681 386.711 L 1500.681 386.711 Q 1499.476 386.612 1498.758 385.81 L 1498.758 385.81 L 1498.758 385.81 Q 1497.727 384.659 1497.66 383.602 L 1497.66 383.602 L 1497.66 383.602 Q 1497.594 382.545 1498.467 381.449 L 1498.467 381.449 L 1496.486 379.168 L 1498.422 377.434 L 1498.951 377.463 L 1500.795 379.521 L 1500.795 379.521 Q 1501.561 379.149 1502.111 379.096 L 1502.111 379.096 L 1502.129 379.08 L 1502.129 379.08 Q 1502.347 379.043 1502.482 379.141 L 1502.482 379.141 L 1502.482 379.141 Q 1502.618 379.24 1502.925 379.688 L 1502.925 379.688 L 1502.925 379.688 Q 1503.656 380.856 1503.412 381.074 L 1503.412 381.074 L 1503.412 381.074 Q 1503.36 381.121 1503.276 381.133 L 1503.276 381.133 L 1502.317 381.396 L 1502.317 381.396 Q 1501.301 381.771 1500.761 382.255 L 1500.761 382.255 L 1500.761 382.255 Q 1500.007 382.993 1500.647 383.708 Z " fill="rgb(165,214,167)"/></g><g><rect x="1446.803" y="353.074" width="69.111" height="38.011" transform="matrix(-0.298,0.954,-0.954,-0.298,2278.302,-930.897)" fill="rgb(255,255,255)"/><path d=" M 1452.912 399.395 L 1473.524 333.429 L 1509.805 344.765 L 1489.194 410.731 L 1452.912 399.395 Z  M 1505.477 347.033 L 1475.792 337.758 L 1457.241 397.127 L 1486.926 406.403 L 1505.477 347.033 Z " fill="rgb(0,0,0)"/><path d=" M 1474.145 395.168 C 1475.965 395.737 1477.905 394.721 1478.474 392.901 C 1479.043 391.08 1478.026 389.141 1476.206 388.572 C 1474.386 388.003 1472.446 389.019 1471.877 390.839 C 1471.308 392.66 1472.325 394.6 1474.145 395.168 Z " fill="rgb(0,0,0)"/><path d=" M 1486.512 355.589 C 1488.332 356.157 1490.272 355.141 1490.841 353.321 C 1491.41 351.5 1490.393 349.561 1488.573 348.992 C 1486.753 348.423 1484.813 349.439 1484.244 351.26 C 1483.675 353.08 1484.691 355.02 1486.512 355.589 Z " fill="rgb(0,0,0)"/><path d=" M 1477.752 383.624 C 1484.123 385.615 1490.912 382.059 1492.903 375.687 C 1494.894 369.316 1491.337 362.527 1484.966 360.536 C 1478.595 358.545 1471.806 362.102 1469.815 368.473 C 1467.824 374.844 1471.381 381.633 1477.752 383.624 Z " fill="rgb(0,0,0)"/><g><path d=" M 1502.866 351.972 C 1505.223 352.708 1507.735 351.393 1508.471 349.036 C 1509.208 346.679 1507.892 344.167 1505.535 343.431 C 1503.178 342.694 1500.666 344.01 1499.93 346.367 C 1499.194 348.724 1500.509 351.235 1502.866 351.972 Z " fill="rgb(0,0,0)"/><path d=" M 1475.126 343.304 C 1477.483 344.041 1479.994 342.725 1480.731 340.368 C 1481.467 338.011 1480.152 335.5 1477.795 334.763 C 1475.438 334.027 1472.926 335.342 1472.19 337.699 C 1471.453 340.056 1472.769 342.568 1475.126 343.304 Z " fill="rgb(0,0,0)"/><path d=" M 1484.923 409.397 C 1487.28 410.134 1489.792 408.818 1490.528 406.461 C 1491.265 404.104 1489.949 401.592 1487.592 400.856 C 1485.235 400.12 1482.724 401.435 1481.987 403.792 C 1481.251 406.149 1482.566 408.661 1484.923 409.397 Z " fill="rgb(0,0,0)"/><path d=" M 1457.183 400.729 C 1459.54 401.466 1462.051 400.15 1462.788 397.793 C 1463.524 395.436 1462.209 392.925 1459.852 392.188 C 1457.495 391.452 1454.983 392.768 1454.247 395.125 C 1453.51 397.482 1454.826 399.993 1457.183 400.729 Z " fill="rgb(0,0,0)"/></g><path d=" M 1478.355 371.621 L 1478.355 371.621 L 1478.355 371.621 Q 1478.679 371.808 1479.087 371.57 L 1479.087 371.57 L 1479.087 371.57 Q 1479.495 371.333 1479.735 371.174 L 1479.735 371.174 L 1479.735 371.174 Q 1479.975 371.015 1480.436 370.686 L 1480.436 370.686 L 1480.436 370.686 Q 1481.951 369.56 1483.169 369.277 L 1483.169 369.277 L 1483.169 369.277 Q 1484.387 368.993 1485.158 369.438 L 1485.158 369.438 L 1485.158 369.438 Q 1486.415 370.164 1487.029 371.208 L 1487.029 371.208 L 1487.029 371.208 Q 1487.643 372.252 1487.498 373.439 L 1487.498 373.439 L 1490.126 374.929 L 1488.674 377.443 L 1488.162 377.58 L 1485.993 376.328 L 1485.993 376.328 Q 1484.854 377.644 1483.183 377.869 L 1483.183 377.869 L 1483.183 377.869 Q 1483.096 377.927 1483.015 377.88 L 1483.015 377.88 L 1483.015 377.88 Q 1482.934 377.833 1482.829 377.732 L 1482.829 377.732 L 1482.829 377.732 Q 1482.725 377.632 1482.446 376.875 L 1482.446 376.875 L 1482.446 376.875 Q 1482.166 376.119 1482.318 375.855 L 1482.318 375.855 L 1482.318 375.855 Q 1482.365 375.774 1482.493 375.74 L 1482.493 375.74 L 1482.493 375.74 Q 1483.965 375.157 1484.55 374.143 L 1484.55 374.143 L 1484.55 374.143 Q 1484.878 373.575 1484.717 373.104 L 1484.717 373.104 L 1484.717 373.104 Q 1484.557 372.633 1484.172 372.411 L 1484.172 372.411 L 1484.172 372.411 Q 1483.786 372.188 1483.356 372.372 L 1483.356 372.372 L 1483.356 372.372 Q 1482.925 372.556 1482.417 372.898 L 1482.417 372.898 L 1482.417 372.898 Q 1481.908 373.24 1481.865 373.269 L 1481.865 373.269 L 1481.865 373.269 Q 1481.821 373.297 1481.74 373.345 L 1481.74 373.345 L 1481.74 373.345 Q 1481.658 373.393 1481.603 373.442 L 1481.603 373.442 L 1481.603 373.442 Q 1480.499 374.183 1479.323 374.464 L 1479.323 374.464 L 1479.323 374.464 Q 1478.147 374.745 1477.214 374.206 L 1477.214 374.206 L 1477.214 374.206 Q 1475.875 373.434 1475.483 372.45 L 1475.483 372.45 L 1475.483 372.45 Q 1475.091 371.467 1475.579 370.153 L 1475.579 370.153 L 1472.987 368.603 L 1474.286 366.352 L 1474.798 366.215 L 1477.191 367.596 L 1477.191 367.596 Q 1477.803 367.003 1478.31 366.782 L 1478.31 366.782 L 1478.322 366.762 L 1478.322 366.762 Q 1478.517 366.658 1478.676 366.71 L 1478.676 366.71 L 1478.676 366.71 Q 1478.836 366.761 1479.267 367.091 L 1479.267 367.091 L 1479.267 367.091 Q 1480.326 367.973 1480.162 368.257 L 1480.162 368.257 L 1480.162 368.257 Q 1480.127 368.318 1480.051 368.355 L 1480.051 368.355 L 1479.221 368.903 L 1479.221 368.903 Q 1478.373 369.576 1478.01 370.205 L 1478.01 370.205 L 1478.01 370.205 Q 1477.524 371.141 1478.355 371.621 Z " fill="rgb(165,214,167)"/></g><g><rect x="1422.492" y="346.05" width="69.111" height="38.011" transform="matrix(0,-1,1,0,1091.992,1822.103)" fill="rgb(255,255,255)"/><path d=" M 1476.053 399.611 L 1476.053 330.5 L 1438.042 330.5 L 1438.042 399.611 L 1476.053 399.611 Z  M 1441.497 333.956 L 1472.598 333.956 L 1472.598 396.156 L 1441.497 396.156 L 1441.497 333.956 Z " fill="rgb(0,0,0)"/><path d=" M 1457.048 389.245 C 1455.14 389.245 1453.592 387.696 1453.592 385.789 C 1453.592 383.882 1455.14 382.334 1457.048 382.334 C 1458.955 382.334 1460.503 383.882 1460.503 385.789 C 1460.503 387.696 1458.955 389.245 1457.048 389.245 Z " fill="rgb(0,0,0)"/><path d=" M 1457.048 347.778 C 1455.14 347.778 1453.592 346.229 1453.592 344.322 C 1453.592 342.415 1455.14 340.867 1457.048 340.867 C 1458.955 340.867 1460.503 342.415 1460.503 344.322 C 1460.503 346.229 1458.955 347.778 1457.048 347.778 Z " fill="rgb(0,0,0)"/><path d=" M 1457.048 377.15 C 1450.372 377.15 1444.953 371.731 1444.953 365.056 C 1444.953 358.381 1450.372 352.961 1457.048 352.961 C 1463.723 352.961 1469.142 358.381 1469.142 365.056 C 1469.142 371.731 1463.723 377.15 1457.048 377.15 Z " fill="rgb(0,0,0)"/><g><path d=" M 1442.516 339.448 C 1440.047 339.448 1438.042 337.444 1438.042 334.974 C 1438.042 332.505 1440.047 330.5 1442.516 330.5 C 1444.985 330.5 1446.99 332.505 1446.99 334.974 C 1446.99 337.444 1444.985 339.448 1442.516 339.448 Z " fill="rgb(0,0,0)"/><path d=" M 1471.579 339.448 C 1469.11 339.448 1467.105 337.444 1467.105 334.974 C 1467.105 332.505 1469.11 330.5 1471.579 330.5 C 1474.048 330.5 1476.053 332.505 1476.053 334.974 C 1476.053 337.444 1474.048 339.448 1471.579 339.448 Z " fill="rgb(0,0,0)"/><path d=" M 1442.516 399.611 C 1440.047 399.611 1438.042 397.607 1438.042 395.137 C 1438.042 392.668 1440.047 390.663 1442.516 390.663 C 1444.985 390.663 1446.99 392.668 1446.99 395.137 C 1446.99 397.607 1444.985 399.611 1442.516 399.611 Z " fill="rgb(0,0,0)"/><path d=" M 1471.579 399.611 C 1469.11 399.611 1467.105 397.607 1467.105 395.137 C 1467.105 392.668 1469.11 390.663 1471.579 390.663 C 1474.048 390.663 1476.053 392.668 1476.053 395.137 C 1476.053 397.607 1474.048 399.611 1471.579 399.611 Z " fill="rgb(0,0,0)"/></g><path d=" M 1454.203 366.156 L 1454.203 366.156 L 1454.203 366.156 Q 1454.577 366.156 1454.811 365.746 L 1454.811 365.746 L 1454.811 365.746 Q 1455.046 365.337 1455.174 365.079 L 1455.174 365.079 L 1455.174 365.079 Q 1455.303 364.822 1455.537 364.306 L 1455.537 364.306 L 1455.537 364.306 Q 1456.287 362.574 1457.2 361.719 L 1457.2 361.719 L 1457.2 361.719 Q 1458.113 360.865 1459.003 360.865 L 1459.003 360.865 L 1459.003 360.865 Q 1460.454 360.865 1461.508 361.462 L 1461.508 361.462 L 1461.508 361.462 Q 1462.562 362.059 1463.03 363.159 L 1463.03 363.159 L 1466.05 363.136 L 1466.05 366.039 L 1465.676 366.414 L 1463.17 366.414 L 1463.17 366.414 Q 1462.843 368.123 1461.508 369.153 L 1461.508 369.153 L 1461.508 369.153 Q 1461.461 369.247 1461.368 369.247 L 1461.368 369.247 L 1461.368 369.247 Q 1461.274 369.247 1461.133 369.212 L 1461.133 369.212 L 1461.133 369.212 Q 1460.993 369.177 1460.372 368.662 L 1460.372 368.662 L 1460.372 368.662 Q 1459.752 368.146 1459.752 367.842 L 1459.752 367.842 L 1459.752 367.842 Q 1459.752 367.748 1459.846 367.655 L 1459.846 367.655 L 1459.846 367.655 Q 1460.829 366.414 1460.829 365.243 L 1460.829 365.243 L 1460.829 365.243 Q 1460.829 364.587 1460.454 364.26 L 1460.454 364.26 L 1460.454 364.26 Q 1460.08 363.932 1459.635 363.932 L 1459.635 363.932 L 1459.635 363.932 Q 1459.19 363.932 1458.909 364.306 L 1458.909 364.306 L 1458.909 364.306 Q 1458.628 364.681 1458.359 365.231 L 1458.359 365.231 L 1458.359 365.231 Q 1458.089 365.782 1458.066 365.828 L 1458.066 365.828 L 1458.066 365.828 Q 1458.043 365.875 1457.996 365.957 L 1457.996 365.957 L 1457.996 365.957 Q 1457.949 366.039 1457.926 366.109 L 1457.926 366.109 L 1457.926 366.109 Q 1457.34 367.304 1456.462 368.135 L 1456.462 368.135 L 1456.462 368.135 Q 1455.584 368.966 1454.507 368.966 L 1454.507 368.966 L 1454.507 368.966 Q 1452.962 368.966 1452.13 368.31 L 1452.13 368.31 L 1452.13 368.31 Q 1451.299 367.655 1451.065 366.273 L 1451.065 366.273 L 1448.045 366.226 L 1448.045 363.627 L 1448.419 363.253 L 1451.182 363.253 L 1451.182 363.253 Q 1451.416 362.433 1451.744 361.988 L 1451.744 361.988 L 1451.744 361.965 L 1451.744 361.965 Q 1451.861 361.778 1452.025 361.743 L 1452.025 361.743 L 1452.025 361.743 Q 1452.189 361.707 1452.728 361.778 L 1452.728 361.778 L 1452.728 361.778 Q 1454.086 362.012 1454.086 362.34 L 1454.086 362.34 L 1454.086 362.34 Q 1454.086 362.41 1454.039 362.48 L 1454.039 362.48 L 1453.594 363.37 L 1453.594 363.37 Q 1453.196 364.377 1453.196 365.103 L 1453.196 365.103 L 1453.196 365.103 Q 1453.243 366.156 1454.203 366.156 Z " fill="rgb(165,214,167)"/></g><mask id="_mask_iIftlWBkW3MvMiE1lnHNtbWPoViFqSDh"><path d=" M 1400.336 390.252 L 1400.336 390.252 L 1400.336 390.252 Q 1400.336 388.46 1404.656 388.46 L 1404.656 388.46 L 1404.656 388.46 Q 1408.976 388.46 1409.552 390.828 L 1409.552 390.828 L 1418.192 425.196 L 1424.336 397.164 L 1424.336 397.164 Q 1424.592 395.884 1425.424 395.436 L 1425.424 395.436 L 1425.424 395.436 Q 1426.256 394.988 1428.24 394.988 L 1428.24 394.988 L 1428.24 394.988 Q 1433.36 394.988 1434.064 397.74 L 1434.064 397.74 L 1440.976 425.196 L 1448.464 391.98 L 1448.464 391.98 Q 1448.72 390.636 1449.552 390.156 L 1449.552 390.156 L 1449.552 390.156 Q 1450.384 389.676 1452.368 389.676 L 1452.368 389.676 L 1461.712 389.676 L 1461.712 389.676 Q 1465.424 389.676 1465.424 391.66 L 1465.424 391.66 L 1465.424 391.66 Q 1465.424 397.356 1462.352 397.356 L 1462.352 397.356 L 1455.44 397.356 L 1446.16 436.332 L 1446.16 436.332 Q 1445.84 437.676 1445.232 438.156 L 1445.232 438.156 L 1445.232 438.156 Q 1444.624 438.636 1443.28 438.636 L 1443.28 438.636 L 1443.28 438.636 Q 1436.432 438.636 1435.792 436.332 L 1435.792 436.332 L 1429.008 413.612 L 1423.248 436.204 L 1423.248 436.204 Q 1422.928 437.612 1422.288 438.124 L 1422.288 438.124 L 1422.288 438.124 Q 1421.648 438.636 1420.368 438.636 L 1420.368 438.636 L 1420.368 438.636 Q 1413.52 438.636 1412.944 436.332 L 1412.944 436.332 L 1400.4 390.636 L 1400.4 390.636 Q 1400.336 390.444 1400.336 390.252 Z  M 1456.592 437.612 L 1456.592 437.612 L 1456.592 405.868 L 1456.592 405.868 Q 1456.592 404.844 1458.896 404.844 L 1458.896 404.844 L 1458.896 404.844 Q 1461.2 404.844 1463.248 405.164 L 1463.248 405.164 L 1463.248 405.164 Q 1465.296 405.484 1465.296 405.868 L 1465.296 405.868 L 1465.296 437.612 L 1465.296 437.612 Q 1465.296 437.996 1465.232 438.124 L 1465.232 438.124 L 1465.232 438.124 Q 1464.912 438.636 1462.8 438.636 L 1462.8 438.636 L 1462.8 438.636 Q 1460.688 438.636 1458.64 438.316 L 1458.64 438.316 L 1458.64 438.316 Q 1456.592 437.996 1456.592 437.612 Z  M 1487.568 404.844 L 1487.568 404.844 L 1487.568 404.844 Q 1492.304 404.844 1494.512 407.788 L 1494.512 407.788 L 1494.512 407.788 Q 1496.72 410.732 1496.72 418.156 L 1496.72 418.156 L 1496.72 437.612 L 1496.72 437.612 Q 1496.72 437.996 1496.656 438.124 L 1496.656 438.124 L 1496.656 438.124 Q 1496.336 438.636 1494.192 438.636 L 1494.192 438.636 L 1494.192 438.636 Q 1492.048 438.636 1489.808 438.316 L 1489.808 438.316 L 1489.808 438.316 Q 1487.568 437.996 1487.568 437.612 L 1487.568 437.612 L 1487.504 418.156 L 1487.504 418.156 Q 1487.504 410.988 1486.48 410.988 L 1486.48 410.988 L 1486.48 410.988 Q 1484.176 410.988 1480.336 413.292 L 1480.336 413.292 L 1480.336 437.612 L 1480.336 437.612 Q 1480.336 437.996 1480.272 438.124 L 1480.272 438.124 L 1480.272 438.124 Q 1479.952 438.636 1477.808 438.636 L 1477.808 438.636 L 1477.808 438.636 Q 1475.664 438.636 1473.392 438.316 L 1473.392 438.316 L 1473.392 438.316 Q 1471.12 437.996 1471.12 437.612 L 1471.12 437.612 L 1471.12 405.868 L 1471.12 405.868 Q 1471.12 404.844 1473.68 404.844 L 1473.68 404.844 L 1473.68 404.844 Q 1477.712 404.844 1478.288 405.868 L 1478.288 405.868 L 1478.288 405.868 Q 1478.288 405.996 1478.352 405.996 L 1478.352 405.996 L 1479.568 408.428 L 1479.568 408.428 Q 1484.944 404.844 1487.568 404.844 Z  M 1512.976 390.316 L 1514 391.34 L 1509.84 424.94 L 1503.504 424.236 L 1502.48 423.212 L 1503.504 403.564 L 1505.552 389.484 L 1512.976 390.316 Z  M 1505.552 438.636 L 1505.552 438.636 L 1505.552 438.636 Q 1500.944 438.636 1500.944 434.028 L 1500.944 434.028 L 1500.944 434.028 Q 1500.944 429.42 1505.552 429.42 L 1505.552 429.42 L 1505.552 429.42 Q 1510.16 429.42 1510.16 434.028 L 1510.16 434.028 L 1510.16 434.028 Q 1510.16 438.636 1505.552 438.636 Z " fill="white" stroke="none"/></mask><path d=" M 1400.336 390.252 L 1400.336 390.252 L 1400.336 390.252 Q 1400.336 388.46 1404.656 388.46 L 1404.656 388.46 L 1404.656 388.46 Q 1408.976 388.46 1409.552 390.828 L 1409.552 390.828 L 1418.192 425.196 L 1424.336 397.164 L 1424.336 397.164 Q 1424.592 395.884 1425.424 395.436 L 1425.424 395.436 L 1425.424 395.436 Q 1426.256 394.988 1428.24 394.988 L 1428.24 394.988 L 1428.24 394.988 Q 1433.36 394.988 1434.064 397.74 L 1434.064 397.74 L 1440.976 425.196 L 1448.464 391.98 L 1448.464 391.98 Q 1448.72 390.636 1449.552 390.156 L 1449.552 390.156 L 1449.552 390.156 Q 1450.384 389.676 1452.368 389.676 L 1452.368 389.676 L 1461.712 389.676 L 1461.712 389.676 Q 1465.424 389.676 1465.424 391.66 L 1465.424 391.66 L 1465.424 391.66 Q 1465.424 397.356 1462.352 397.356 L 1462.352 397.356 L 1455.44 397.356 L 1446.16 436.332 L 1446.16 436.332 Q 1445.84 437.676 1445.232 438.156 L 1445.232 438.156 L 1445.232 438.156 Q 1444.624 438.636 1443.28 438.636 L 1443.28 438.636 L 1443.28 438.636 Q 1436.432 438.636 1435.792 436.332 L 1435.792 436.332 L 1429.008 413.612 L 1423.248 436.204 L 1423.248 436.204 Q 1422.928 437.612 1422.288 438.124 L 1422.288 438.124 L 1422.288 438.124 Q 1421.648 438.636 1420.368 438.636 L 1420.368 438.636 L 1420.368 438.636 Q 1413.52 438.636 1412.944 436.332 L 1412.944 436.332 L 1400.4 390.636 L 1400.4 390.636 Q 1400.336 390.444 1400.336 390.252 Z  M 1456.592 437.612 L 1456.592 437.612 L 1456.592 405.868 L 1456.592 405.868 Q 1456.592 404.844 1458.896 404.844 L 1458.896 404.844 L 1458.896 404.844 Q 1461.2 404.844 1463.248 405.164 L 1463.248 405.164 L 1463.248 405.164 Q 1465.296 405.484 1465.296 405.868 L 1465.296 405.868 L 1465.296 437.612 L 1465.296 437.612 Q 1465.296 437.996 1465.232 438.124 L 1465.232 438.124 L 1465.232 438.124 Q 1464.912 438.636 1462.8 438.636 L 1462.8 438.636 L 1462.8 438.636 Q 1460.688 438.636 1458.64 438.316 L 1458.64 438.316 L 1458.64 438.316 Q 1456.592 437.996 1456.592 437.612 Z  M 1487.568 404.844 L 1487.568 404.844 L 1487.568 404.844 Q 1492.304 404.844 1494.512 407.788 L 1494.512 407.788 L 1494.512 407.788 Q 1496.72 410.732 1496.72 418.156 L 1496.72 418.156 L 1496.72 437.612 L 1496.72 437.612 Q 1496.72 437.996 1496.656 438.124 L 1496.656 438.124 L 1496.656 438.124 Q 1496.336 438.636 1494.192 438.636 L 1494.192 438.636 L 1494.192 438.636 Q 1492.048 438.636 1489.808 438.316 L 1489.808 438.316 L 1489.808 438.316 Q 1487.568 437.996 1487.568 437.612 L 1487.568 437.612 L 1487.504 418.156 L 1487.504 418.156 Q 1487.504 410.988 1486.48 410.988 L 1486.48 410.988 L 1486.48 410.988 Q 1484.176 410.988 1480.336 413.292 L 1480.336 413.292 L 1480.336 437.612 L 1480.336 437.612 Q 1480.336 437.996 1480.272 438.124 L 1480.272 438.124 L 1480.272 438.124 Q 1479.952 438.636 1477.808 438.636 L 1477.808 438.636 L 1477.808 438.636 Q 1475.664 438.636 1473.392 438.316 L 1473.392 438.316 L 1473.392 438.316 Q 1471.12 437.996 1471.12 437.612 L 1471.12 437.612 L 1471.12 405.868 L 1471.12 405.868 Q 1471.12 404.844 1473.68 404.844 L 1473.68 404.844 L 1473.68 404.844 Q 1477.712 404.844 1478.288 405.868 L 1478.288 405.868 L 1478.288 405.868 Q 1478.288 405.996 1478.352 405.996 L 1478.352 405.996 L 1479.568 408.428 L 1479.568 408.428 Q 1484.944 404.844 1487.568 404.844 Z  M 1512.976 390.316 L 1514 391.34 L 1509.84 424.94 L 1503.504 424.236 L 1502.48 423.212 L 1503.504 403.564 L 1505.552 389.484 L 1512.976 390.316 Z  M 1505.552 438.636 L 1505.552 438.636 L 1505.552 438.636 Q 1500.944 438.636 1500.944 434.028 L 1500.944 434.028 L 1500.944 434.028 Q 1500.944 429.42 1505.552 429.42 L 1505.552 429.42 L 1505.552 429.42 Q 1510.16 429.42 1510.16 434.028 L 1510.16 434.028 L 1510.16 434.028 Q 1510.16 438.636 1505.552 438.636 Z " fill="rgb(165,214,167)"/><path d=" M 1400.336 390.252 L 1400.336 390.252 L 1400.336 390.252 Q 1400.336 388.46 1404.656 388.46 L 1404.656 388.46 L 1404.656 388.46 Q 1408.976 388.46 1409.552 390.828 L 1409.552 390.828 L 1418.192 425.196 L 1424.336 397.164 L 1424.336 397.164 Q 1424.592 395.884 1425.424 395.436 L 1425.424 395.436 L 1425.424 395.436 Q 1426.256 394.988 1428.24 394.988 L 1428.24 394.988 L 1428.24 394.988 Q 1433.36 394.988 1434.064 397.74 L 1434.064 397.74 L 1440.976 425.196 L 1448.464 391.98 L 1448.464 391.98 Q 1448.72 390.636 1449.552 390.156 L 1449.552 390.156 L 1449.552 390.156 Q 1450.384 389.676 1452.368 389.676 L 1452.368 389.676 L 1461.712 389.676 L 1461.712 389.676 Q 1465.424 389.676 1465.424 391.66 L 1465.424 391.66 L 1465.424 391.66 Q 1465.424 397.356 1462.352 397.356 L 1462.352 397.356 L 1455.44 397.356 L 1446.16 436.332 L 1446.16 436.332 Q 1445.84 437.676 1445.232 438.156 L 1445.232 438.156 L 1445.232 438.156 Q 1444.624 438.636 1443.28 438.636 L 1443.28 438.636 L 1443.28 438.636 Q 1436.432 438.636 1435.792 436.332 L 1435.792 436.332 L 1429.008 413.612 L 1423.248 436.204 L 1423.248 436.204 Q 1422.928 437.612 1422.288 438.124 L 1422.288 438.124 L 1422.288 438.124 Q 1421.648 438.636 1420.368 438.636 L 1420.368 438.636 L 1420.368 438.636 Q 1413.52 438.636 1412.944 436.332 L 1412.944 436.332 L 1400.4 390.636 L 1400.4 390.636 Q 1400.336 390.444 1400.336 390.252 Z  M 1456.592 437.612 L 1456.592 437.612 L 1456.592 405.868 L 1456.592 405.868 Q 1456.592 404.844 1458.896 404.844 L 1458.896 404.844 L 1458.896 404.844 Q 1461.2 404.844 1463.248 405.164 L 1463.248 405.164 L 1463.248 405.164 Q 1465.296 405.484 1465.296 405.868 L 1465.296 405.868 L 1465.296 437.612 L 1465.296 437.612 Q 1465.296 437.996 1465.232 438.124 L 1465.232 438.124 L 1465.232 438.124 Q 1464.912 438.636 1462.8 438.636 L 1462.8 438.636 L 1462.8 438.636 Q 1460.688 438.636 1458.64 438.316 L 1458.64 438.316 L 1458.64 438.316 Q 1456.592 437.996 1456.592 437.612 Z  M 1487.568 404.844 L 1487.568 404.844 L 1487.568 404.844 Q 1492.304 404.844 1494.512 407.788 L 1494.512 407.788 L 1494.512 407.788 Q 1496.72 410.732 1496.72 418.156 L 1496.72 418.156 L 1496.72 437.612 L 1496.72 437.612 Q 1496.72 437.996 1496.656 438.124 L 1496.656 438.124 L 1496.656 438.124 Q 1496.336 438.636 1494.192 438.636 L 1494.192 438.636 L 1494.192 438.636 Q 1492.048 438.636 1489.808 438.316 L 1489.808 438.316 L 1489.808 438.316 Q 1487.568 437.996 1487.568 437.612 L 1487.568 437.612 L 1487.504 418.156 L 1487.504 418.156 Q 1487.504 410.988 1486.48 410.988 L 1486.48 410.988 L 1486.48 410.988 Q 1484.176 410.988 1480.336 413.292 L 1480.336 413.292 L 1480.336 437.612 L 1480.336 437.612 Q 1480.336 437.996 1480.272 438.124 L 1480.272 438.124 L 1480.272 438.124 Q 1479.952 438.636 1477.808 438.636 L 1477.808 438.636 L 1477.808 438.636 Q 1475.664 438.636 1473.392 438.316 L 1473.392 438.316 L 1473.392 438.316 Q 1471.12 437.996 1471.12 437.612 L 1471.12 437.612 L 1471.12 405.868 L 1471.12 405.868 Q 1471.12 404.844 1473.68 404.844 L 1473.68 404.844 L 1473.68 404.844 Q 1477.712 404.844 1478.288 405.868 L 1478.288 405.868 L 1478.288 405.868 Q 1478.288 405.996 1478.352 405.996 L 1478.352 405.996 L 1479.568 408.428 L 1479.568 408.428 Q 1484.944 404.844 1487.568 404.844 Z  M 1512.976 390.316 L 1514 391.34 L 1509.84 424.94 L 1503.504 424.236 L 1502.48 423.212 L 1503.504 403.564 L 1505.552 389.484 L 1512.976 390.316 Z  M 1505.552 438.636 L 1505.552 438.636 L 1505.552 438.636 Q 1500.944 438.636 1500.944 434.028 L 1500.944 434.028 L 1500.944 434.028 Q 1500.944 429.42 1505.552 429.42 L 1505.552 429.42 L 1505.552 429.42 Q 1510.16 429.42 1510.16 434.028 L 1510.16 434.028 L 1510.16 434.028 Q 1510.16 438.636 1505.552 438.636 Z " fill="rgb(165,214,167)" mask="url(#_mask_iIftlWBkW3MvMiE1lnHNtbWPoViFqSDh)" vector-effect="non-scaling-stroke" stroke-width="2" stroke="rgb(0,0,0)" stroke-linejoin="miter" stroke-linecap="square" stroke-miterlimit="3"/></g></svg>