<?xml version="1.0" encoding="UTF-8" standalone="no"?><!-- Generator: Gravit.io --><svg xmlns="http://www.w3.org/2000/svg" xmlns:xlink="http://www.w3.org/1999/xlink" style="isolation:isolate" viewBox="1617 336.195 169.233 100.687" width="169.233pt" height="100.687pt"><g><g><rect x="1621.385" y="387.303" width="73.994" height="40.697" transform="matrix(0.966,0.259,-0.259,0.966,162.016,-415.331)" fill="rgb(255,255,255)"/><path d=" M 1617.379 417.731 L 1688.852 436.882 L 1699.385 397.572 L 1627.912 378.421 L 1617.379 417.731 Z  M 1694.854 400.188 L 1686.236 432.351 L 1621.91 415.115 L 1630.528 382.952 L 1694.854 400.188 Z " fill="rgb(0,0,0)"/><path d=" M 1633.367 400.949 C 1633.895 398.976 1635.925 397.804 1637.898 398.333 C 1639.87 398.861 1641.042 400.891 1640.514 402.864 C 1639.985 404.836 1637.955 406.008 1635.983 405.48 C 1634.01 404.951 1632.838 402.921 1633.367 400.949 Z " fill="rgb(0,0,0)"/><path d=" M 1676.25 412.439 C 1676.779 410.467 1678.809 409.295 1680.782 409.823 C 1682.754 410.352 1683.926 412.382 1683.398 414.355 C 1682.869 416.327 1680.839 417.499 1678.867 416.971 C 1676.894 416.442 1675.722 414.412 1676.25 412.439 Z " fill="rgb(0,0,0)"/><path d=" M 1645.874 404.3 C 1647.724 397.397 1654.83 393.294 1661.734 395.144 C 1668.637 396.994 1672.74 404.1 1670.89 411.003 C 1669.04 417.906 1661.934 422.009 1655.031 420.159 C 1648.127 418.31 1644.025 411.203 1645.874 404.3 Z " fill="rgb(0,0,0)"/><g><path d=" M 1688.891 399.72 C 1689.576 397.166 1692.205 395.648 1694.758 396.332 C 1697.312 397.017 1698.83 399.645 1698.145 402.199 C 1697.461 404.753 1694.832 406.271 1692.279 405.586 C 1689.725 404.902 1688.207 402.273 1688.891 399.72 Z " fill="rgb(0,0,0)"/><path d=" M 1680.838 429.776 C 1681.522 427.222 1684.151 425.704 1686.705 426.388 C 1689.258 427.073 1690.776 429.702 1690.092 432.255 C 1689.408 434.809 1686.779 436.327 1684.225 435.642 C 1681.671 434.958 1680.154 432.329 1680.838 429.776 Z " fill="rgb(0,0,0)"/><path d=" M 1626.672 383.048 C 1627.357 380.494 1629.986 378.976 1632.539 379.661 C 1635.093 380.345 1636.611 382.974 1635.926 385.528 C 1635.242 388.081 1632.613 389.599 1630.06 388.915 C 1627.506 388.231 1625.988 385.602 1626.672 383.048 Z " fill="rgb(0,0,0)"/><path d=" M 1618.619 413.104 C 1619.303 410.55 1621.932 409.033 1624.486 409.717 C 1627.039 410.401 1628.557 413.03 1627.873 415.584 C 1627.189 418.137 1624.56 419.655 1622.006 418.971 C 1619.452 418.287 1617.935 415.658 1618.619 413.104 Z " fill="rgb(0,0,0)"/></g><path d=" M 1658.032 404.405 L 1658.032 404.405 L 1658.032 404.405 Q 1657.929 404.792 1658.287 405.148 L 1658.287 405.148 L 1658.287 405.148 Q 1658.646 405.503 1658.877 405.708 L 1658.877 405.708 L 1658.877 405.708 Q 1659.108 405.913 1659.576 406.297 L 1659.576 406.297 L 1659.576 406.297 Q 1661.16 407.552 1661.791 408.734 L 1661.791 408.734 L 1661.791 408.734 Q 1662.421 409.915 1662.175 410.835 L 1662.175 410.835 L 1662.175 410.835 Q 1661.773 412.336 1660.863 413.261 L 1660.863 413.261 L 1660.863 413.261 Q 1659.954 414.185 1658.686 414.364 L 1658.686 414.364 L 1657.873 417.494 L 1654.87 416.69 L 1654.587 416.198 L 1655.281 413.607 L 1655.281 413.607 Q 1653.604 412.795 1652.909 411.129 L 1652.909 411.129 L 1652.909 411.129 Q 1652.825 411.055 1652.851 410.958 L 1652.851 410.958 L 1652.851 410.958 Q 1652.877 410.861 1652.952 410.725 L 1652.952 410.725 L 1652.952 410.725 Q 1653.027 410.59 1653.732 410.091 L 1653.732 410.091 L 1653.732 410.091 Q 1654.436 409.592 1654.751 409.676 L 1654.751 409.676 L 1654.751 409.676 Q 1654.848 409.702 1654.919 409.825 L 1654.919 409.825 L 1654.919 409.825 Q 1655.93 411.186 1657.141 411.51 L 1657.141 411.51 L 1657.141 411.51 Q 1657.819 411.692 1658.261 411.395 L 1658.261 411.395 L 1658.261 411.395 Q 1658.704 411.099 1658.828 410.639 L 1658.828 410.639 L 1658.828 410.639 Q 1658.951 410.179 1658.641 409.784 L 1658.641 409.784 L 1658.641 409.784 Q 1658.332 409.39 1657.837 408.959 L 1657.837 408.959 L 1657.837 408.959 Q 1657.343 408.528 1657.301 408.491 L 1657.301 408.491 L 1657.301 408.491 Q 1657.259 408.454 1657.187 408.383 L 1657.187 408.383 L 1657.187 408.383 Q 1657.115 408.311 1657.049 408.268 L 1657.049 408.268 L 1657.049 408.268 Q 1655.976 407.331 1655.36 406.193 L 1655.36 406.193 L 1655.36 406.193 Q 1654.744 405.055 1655.042 403.941 L 1655.042 403.941 L 1655.042 403.941 Q 1655.471 402.343 1656.379 401.665 L 1656.379 401.665 L 1656.379 401.665 Q 1657.287 400.987 1658.781 401.127 L 1658.781 401.127 L 1659.666 398.017 L 1662.354 398.737 L 1662.638 399.228 L 1661.872 402.085 L 1661.872 402.085 Q 1662.655 402.555 1663.024 403.017 L 1663.024 403.017 L 1663.048 403.023 L 1663.048 403.023 Q 1663.209 403.196 1663.2 403.376 L 1663.2 403.376 L 1663.2 403.376 Q 1663.191 403.555 1662.969 404.092 L 1662.969 404.092 L 1662.969 404.092 Q 1662.351 405.432 1662.012 405.341 L 1662.012 405.341 L 1662.012 405.341 Q 1661.939 405.322 1661.88 405.254 L 1661.88 405.254 L 1661.083 404.547 L 1661.083 404.547 Q 1660.152 403.856 1659.401 403.655 L 1659.401 403.655 L 1659.401 403.655 Q 1658.298 403.412 1658.032 404.405 Z " fill="rgb(227,121,121)"/></g><g><rect x="1621.385" y="346.303" width="73.994" height="40.697" transform="matrix(0.954,-0.298,0.298,0.954,-33.879,511.276)" fill="rgb(255,255,255)"/><path d=" M 1629.137 397.108 L 1699.764 375.04 L 1687.627 336.195 L 1617 358.263 L 1629.137 397.108 Z  M 1685.199 340.83 L 1695.13 372.612 L 1631.565 392.473 L 1621.635 360.691 L 1685.199 340.83 Z " fill="rgb(0,0,0)"/><path d=" M 1633.663 374.375 C 1633.054 372.426 1634.142 370.35 1636.091 369.741 C 1638.04 369.132 1640.116 370.22 1640.725 372.169 C 1641.334 374.118 1640.246 376.194 1638.297 376.803 C 1636.348 377.412 1634.272 376.324 1633.663 374.375 Z " fill="rgb(0,0,0)"/><path d=" M 1676.039 361.135 C 1675.43 359.186 1676.518 357.109 1678.467 356.5 C 1680.416 355.891 1682.493 356.979 1683.102 358.928 C 1683.711 360.877 1682.623 362.954 1680.674 363.563 C 1678.725 364.172 1676.648 363.084 1676.039 361.135 Z " fill="rgb(0,0,0)"/><path d=" M 1646.022 370.513 C 1643.891 363.692 1647.699 356.423 1654.52 354.292 C 1661.342 352.16 1668.61 355.968 1670.742 362.79 C 1672.873 369.611 1669.066 376.88 1662.244 379.011 C 1655.423 381.143 1648.154 377.335 1646.022 370.513 Z " fill="rgb(0,0,0)"/><g><path d=" M 1679.911 343.625 C 1679.123 341.101 1680.531 338.412 1683.055 337.624 C 1685.578 336.835 1688.267 338.244 1689.056 340.768 C 1689.844 343.291 1688.436 345.98 1685.912 346.768 C 1683.389 347.557 1680.7 346.148 1679.911 343.625 Z " fill="rgb(0,0,0)"/><path d=" M 1689.191 373.325 C 1688.403 370.802 1689.811 368.113 1692.335 367.324 C 1694.858 366.536 1697.547 367.944 1698.336 370.468 C 1699.124 372.991 1697.716 375.68 1695.192 376.469 C 1692.669 377.257 1689.98 375.849 1689.191 373.325 Z " fill="rgb(0,0,0)"/><path d=" M 1618.429 362.835 C 1617.64 360.312 1619.049 357.623 1621.572 356.834 C 1624.096 356.046 1626.785 357.455 1627.573 359.978 C 1628.362 362.502 1626.953 365.191 1624.43 365.979 C 1621.906 366.768 1619.217 365.359 1618.429 362.835 Z " fill="rgb(0,0,0)"/><path d=" M 1627.709 392.536 C 1626.92 390.012 1628.329 387.323 1630.852 386.535 C 1633.376 385.746 1636.065 387.155 1636.853 389.678 C 1637.642 392.202 1636.233 394.891 1633.71 395.679 C 1631.186 396.468 1628.497 395.059 1627.709 392.536 Z " fill="rgb(0,0,0)"/></g><path d=" M 1656.349 364.096 L 1656.349 364.096 L 1656.349 364.096 Q 1656.469 364.479 1656.962 364.587 L 1656.962 364.587 L 1656.962 364.587 Q 1657.456 364.695 1657.76 364.745 L 1657.76 364.745 L 1657.76 364.745 Q 1658.064 364.794 1658.666 364.869 L 1658.666 364.869 L 1658.666 364.869 Q 1660.676 365.081 1661.841 365.742 L 1661.841 365.742 L 1661.841 365.742 Q 1663.005 366.402 1663.29 367.311 L 1663.29 367.311 L 1663.29 367.311 Q 1663.753 368.795 1663.479 370.062 L 1663.479 370.062 L 1663.479 370.062 Q 1663.206 371.33 1662.231 372.16 L 1662.231 372.16 L 1663.219 375.239 L 1660.252 376.166 L 1659.749 375.903 L 1658.949 373.342 L 1658.949 373.342 Q 1657.098 373.553 1655.619 372.518 L 1655.619 372.518 L 1655.619 372.518 Q 1655.508 372.5 1655.478 372.405 L 1655.478 372.405 L 1655.478 372.405 Q 1655.449 372.309 1655.44 372.154 L 1655.44 372.154 L 1655.44 372.154 Q 1655.431 371.999 1655.759 371.201 L 1655.759 371.201 L 1655.759 371.201 Q 1656.087 370.402 1656.398 370.305 L 1656.398 370.305 L 1656.398 370.305 Q 1656.494 370.275 1656.62 370.341 L 1656.62 370.341 L 1656.62 370.341 Q 1658.202 370.95 1659.398 370.576 L 1659.398 370.576 L 1659.398 370.576 Q 1660.068 370.366 1660.284 369.879 L 1660.284 369.879 L 1660.284 369.879 Q 1660.499 369.391 1660.357 368.937 L 1660.357 368.937 L 1660.357 368.937 Q 1660.215 368.482 1659.742 368.315 L 1659.742 368.315 L 1659.742 368.315 Q 1659.27 368.147 1658.621 368.048 L 1658.621 368.048 L 1658.621 368.048 Q 1657.973 367.948 1657.918 367.939 L 1657.918 367.939 L 1657.918 367.939 Q 1657.862 367.93 1657.764 367.909 L 1657.764 367.909 L 1657.764 367.909 Q 1657.665 367.887 1657.586 367.885 L 1657.586 367.885 L 1657.586 367.885 Q 1656.179 367.668 1655.049 367.037 L 1655.049 367.037 L 1655.049 367.037 Q 1653.919 366.405 1653.575 365.304 L 1653.575 365.304 L 1653.575 365.304 Q 1653.082 363.725 1653.486 362.666 L 1653.486 362.666 L 1653.486 362.666 Q 1653.891 361.607 1655.228 360.927 L 1655.228 360.927 L 1654.311 357.825 L 1656.967 356.995 L 1657.47 357.258 L 1658.352 360.082 L 1658.352 360.082 Q 1659.264 360.06 1659.823 360.252 L 1659.823 360.252 L 1659.847 360.245 L 1659.847 360.245 Q 1660.076 360.305 1660.164 360.461 L 1660.164 360.461 L 1660.164 360.461 Q 1660.253 360.617 1660.353 361.19 L 1660.353 361.19 L 1660.353 361.19 Q 1660.547 362.653 1660.212 362.757 L 1660.212 362.757 L 1660.212 362.757 Q 1660.14 362.78 1660.054 362.754 L 1660.054 362.754 L 1659.002 362.584 L 1659.002 362.584 Q 1657.846 362.499 1657.104 362.73 L 1657.104 362.73 L 1657.104 362.73 Q 1656.043 363.115 1656.349 364.096 Z " fill="rgb(227,121,121)"/></g><path d=" M 1714.847 383.377 L 1714.847 383.377 L 1714.847 383.377 Q 1715.975 383.377 1715.975 384.821 L 1715.975 384.821 L 1715.975 384.821 Q 1715.975 386.265 1715.93 386.987 L 1715.93 386.987 L 1715.93 386.987 Q 1715.749 388.612 1714.486 388.837 L 1714.486 388.837 L 1714.486 388.837 Q 1710.47 389.424 1708.529 389.424 L 1708.529 389.424 L 1708.529 389.424 Q 1701.806 389.424 1699.279 385.634 L 1699.279 385.634 L 1699.279 385.634 Q 1696.752 381.843 1696.752 371.961 L 1696.752 371.961 L 1696.752 371.961 Q 1696.752 364.741 1697.858 360.928 L 1697.858 360.928 L 1697.858 360.928 Q 1698.963 357.115 1701.422 355.581 L 1701.422 355.581 L 1701.422 355.581 Q 1703.882 354.047 1708.778 354.047 L 1708.778 354.047 L 1708.778 354.047 Q 1713.674 354.047 1715.93 355.581 L 1715.93 355.581 L 1715.93 355.581 Q 1716.381 355.897 1716.381 356.348 L 1716.381 356.348 L 1716.381 356.348 Q 1716.381 356.799 1715.952 358.04 L 1715.952 358.04 L 1715.952 358.04 Q 1715.524 359.281 1715.14 359.8 L 1715.14 359.8 L 1715.14 359.8 Q 1714.756 360.319 1714.35 360.319 L 1714.35 360.319 L 1714.35 360.319 Q 1713.944 360.319 1713.719 360.274 L 1713.719 360.274 L 1713.719 360.274 Q 1710.334 359.597 1707.875 359.597 L 1707.875 359.597 L 1707.875 359.597 Q 1705.416 359.597 1704.671 362.305 L 1704.671 362.305 L 1704.671 362.305 Q 1703.927 365.012 1703.927 371.081 L 1703.927 371.081 L 1703.927 371.081 Q 1703.927 377.15 1704.243 379.542 L 1704.243 379.542 L 1704.243 379.542 Q 1704.558 381.934 1705.416 382.881 L 1705.416 382.881 L 1705.416 382.881 Q 1706.273 383.829 1708.146 383.829 L 1708.146 383.829 L 1708.146 383.829 Q 1710.018 383.829 1712.387 383.603 L 1712.387 383.603 L 1712.387 383.603 Q 1714.756 383.377 1714.847 383.377 Z  M 1729.738 354.002 L 1729.738 354.002 L 1729.738 354.002 Q 1732.851 354.002 1733.122 355.401 L 1733.122 355.401 L 1736.19 369.254 L 1739.304 387.709 L 1739.304 387.709 Q 1739.394 388.161 1739.394 388.544 L 1739.394 388.544 L 1739.394 388.544 Q 1739.394 388.928 1739.169 389.176 L 1739.169 389.176 L 1739.169 389.176 Q 1738.943 389.424 1737.634 389.424 L 1737.634 389.424 L 1737.634 389.424 Q 1733.618 389.424 1733.348 387.709 L 1733.348 387.709 L 1731.768 378.414 L 1725.451 378.414 L 1724.052 387.755 L 1724.052 387.755 Q 1723.917 388.702 1723.714 389.018 L 1723.714 389.018 L 1723.714 389.018 Q 1723.511 389.334 1723.15 389.379 L 1723.15 389.379 L 1723.15 389.379 Q 1722.789 389.424 1721.976 389.424 L 1721.976 389.424 L 1720.713 389.424 L 1720.713 389.424 Q 1719.134 389.424 1718.727 389.244 L 1718.727 389.244 L 1718.727 389.244 Q 1717.735 388.883 1717.599 388.431 L 1717.599 388.431 L 1717.599 388.431 Q 1717.554 388.206 1717.554 388.025 L 1717.554 388.025 L 1717.554 388.025 Q 1717.554 387.845 1718.502 382.069 L 1718.502 382.069 L 1718.502 382.069 Q 1719.449 376.293 1720.826 368.306 L 1720.826 368.306 L 1720.826 368.306 Q 1722.202 360.319 1722.631 357.837 L 1722.631 357.837 L 1722.631 357.837 Q 1723.059 355.355 1723.104 355.04 L 1723.104 355.04 L 1723.104 355.04 Q 1723.285 354.002 1729.738 354.002 Z  M 1730.776 372.954 L 1728.384 359.913 L 1726.308 372.954 L 1730.776 372.954 Z  M 1742.779 385.408 L 1742.779 385.408 Q 1741.831 384.235 1741.831 383.626 L 1741.831 383.626 L 1741.831 383.626 Q 1741.831 383.016 1742.891 381.956 L 1742.891 381.956 L 1742.891 381.956 Q 1743.952 380.896 1744.29 380.805 L 1744.29 380.805 L 1744.29 380.805 Q 1744.629 380.715 1744.945 380.715 L 1744.945 380.715 L 1744.945 380.715 Q 1745.26 380.715 1745.982 381.121 L 1745.982 381.121 L 1745.982 381.121 Q 1749.322 383.738 1751.849 383.738 L 1751.849 383.738 L 1751.849 383.738 Q 1754.375 383.738 1755.143 382.565 L 1755.143 382.565 L 1755.143 382.565 Q 1755.91 381.392 1755.91 379.497 L 1755.91 379.497 L 1755.91 379.497 Q 1755.91 377.602 1754.556 376.428 L 1754.556 376.428 L 1754.556 376.428 Q 1753.202 375.255 1750.111 373.586 L 1750.111 373.586 L 1750.111 373.586 Q 1747.02 371.916 1744.719 369.254 L 1744.719 369.254 L 1744.719 369.254 Q 1742.418 366.591 1742.418 363.749 L 1742.418 363.749 L 1742.418 363.749 Q 1742.418 358.695 1745.057 356.371 L 1745.057 356.371 L 1745.057 356.371 Q 1747.697 354.047 1752.796 354.047 L 1752.796 354.047 L 1752.796 354.047 Q 1755.91 354.047 1758.888 355.536 L 1758.888 355.536 L 1758.888 355.536 Q 1760.467 356.168 1760.377 356.845 L 1760.377 356.845 L 1760.377 356.845 Q 1760.332 357.115 1760.287 357.657 L 1760.287 357.657 L 1760.287 357.657 Q 1759.429 360.093 1758.978 360.454 L 1758.978 360.454 L 1758.978 360.454 Q 1758.843 360.545 1758.369 360.545 L 1758.369 360.545 L 1758.369 360.545 Q 1757.895 360.545 1755.865 359.8 L 1755.865 359.8 L 1755.865 359.8 Q 1753.834 359.056 1752.413 359.056 L 1752.413 359.056 L 1752.413 359.056 Q 1750.991 359.056 1750.044 360.048 L 1750.044 360.048 L 1750.044 360.048 Q 1749.096 361.041 1749.096 362.846 L 1749.096 362.846 L 1749.096 362.846 Q 1749.096 364.651 1750.72 366.118 L 1750.72 366.118 L 1750.72 366.118 Q 1752.345 367.584 1755.729 369.163 L 1755.729 369.163 L 1755.729 369.163 Q 1759.294 371.013 1761.076 372.999 L 1761.076 372.999 L 1761.076 372.999 Q 1762.859 374.984 1762.859 378.324 L 1762.859 378.324 L 1762.859 378.324 Q 1762.859 389.424 1753.473 389.424 L 1753.473 389.424 L 1753.473 389.424 Q 1746.479 389.424 1742.779 385.408 L 1742.779 385.408 Z  M 1779.871 369.299 L 1779.871 355.581 L 1779.871 355.581 Q 1779.871 354.633 1780.299 354.34 L 1780.299 354.34 L 1780.299 354.34 Q 1780.728 354.047 1782.082 354.047 L 1782.082 354.047 L 1782.082 354.047 Q 1785.331 354.047 1785.376 355.716 L 1785.376 355.716 L 1786.233 369.254 L 1786.233 387.755 L 1786.233 387.755 Q 1786.233 388.522 1786.188 388.792 L 1786.188 388.792 L 1786.188 388.792 Q 1786.007 389.424 1784.428 389.424 L 1784.428 389.424 L 1784.428 389.424 Q 1779.871 389.424 1779.871 387.8 L 1779.871 387.8 L 1779.871 374.714 L 1772.47 374.714 L 1772.515 387.755 L 1772.515 387.755 Q 1772.515 388.522 1772.47 388.792 L 1772.47 388.792 L 1772.47 388.792 Q 1772.29 389.424 1770.71 389.424 L 1770.71 389.424 L 1770.71 389.424 Q 1766.198 389.424 1766.198 387.709 L 1766.198 387.709 L 1766.198 355.626 L 1766.198 355.626 Q 1766.198 354.633 1766.627 354.34 L 1766.627 354.34 L 1766.627 354.34 Q 1767.055 354.047 1768.409 354.047 L 1768.409 354.047 L 1768.409 354.047 Q 1771.658 354.047 1771.703 355.626 L 1771.703 355.626 L 1772.47 369.299 L 1779.871 369.299 Z " fill="rgb(165,214,167)"/><path d=" M 1696.617 395.405 L 1696.617 395.405 L 1696.617 395.405 Q 1696.617 394.142 1699.662 394.142 L 1699.662 394.142 L 1699.662 394.142 Q 1702.708 394.142 1703.114 395.811 L 1703.114 395.811 L 1709.206 420.043 L 1713.538 400.279 L 1713.538 400.279 Q 1713.719 399.376 1714.305 399.06 L 1714.305 399.06 L 1714.305 399.06 Q 1714.892 398.745 1716.291 398.745 L 1716.291 398.745 L 1716.291 398.745 Q 1719.901 398.745 1720.397 400.685 L 1720.397 400.685 L 1725.27 420.043 L 1730.64 395.811 L 1730.64 395.811 Q 1730.866 394.819 1731.452 394.48 L 1731.452 394.48 L 1731.452 394.48 Q 1732.039 394.142 1733.754 394.142 L 1733.754 394.142 L 1733.754 394.142 Q 1735.468 394.142 1735.987 394.367 L 1735.987 394.367 L 1735.987 394.367 Q 1736.506 394.593 1736.506 395.405 L 1736.506 395.405 L 1736.506 395.405 Q 1736.506 395.586 1736.461 395.811 L 1736.461 395.811 L 1728.925 427.895 L 1728.925 427.895 Q 1728.7 428.842 1728.271 429.181 L 1728.271 429.181 L 1728.271 429.181 Q 1727.842 429.519 1726.895 429.519 L 1726.895 429.519 L 1726.895 429.519 Q 1722.067 429.519 1721.615 427.895 L 1721.615 427.895 L 1716.832 411.876 L 1712.771 427.804 L 1712.771 427.804 Q 1712.545 428.797 1712.094 429.158 L 1712.094 429.158 L 1712.094 429.158 Q 1711.643 429.519 1710.74 429.519 L 1710.74 429.519 L 1710.74 429.519 Q 1705.912 429.519 1705.506 427.895 L 1705.506 427.895 L 1696.662 395.676 L 1696.662 395.676 Q 1696.617 395.541 1696.617 395.405 Z  M 1751.397 394.097 L 1751.397 394.097 L 1751.397 394.097 Q 1754.511 394.097 1754.782 395.496 L 1754.782 395.496 L 1757.85 409.349 L 1760.964 427.804 L 1760.964 427.804 Q 1761.054 428.256 1761.054 428.639 L 1761.054 428.639 L 1761.054 428.639 Q 1761.054 429.023 1760.828 429.271 L 1760.828 429.271 L 1760.828 429.271 Q 1760.603 429.519 1759.294 429.519 L 1759.294 429.519 L 1759.294 429.519 Q 1755.278 429.519 1755.007 427.804 L 1755.007 427.804 L 1753.428 418.509 L 1747.11 418.509 L 1745.712 427.85 L 1745.712 427.85 Q 1745.576 428.797 1745.373 429.113 L 1745.373 429.113 L 1745.373 429.113 Q 1745.17 429.429 1744.809 429.474 L 1744.809 429.474 L 1744.809 429.474 Q 1744.448 429.519 1743.636 429.519 L 1743.636 429.519 L 1742.372 429.519 L 1742.372 429.519 Q 1740.793 429.519 1740.387 429.339 L 1740.387 429.339 L 1740.387 429.339 Q 1739.394 428.978 1739.259 428.526 L 1739.259 428.526 L 1739.259 428.526 Q 1739.214 428.301 1739.214 428.12 L 1739.214 428.12 L 1739.214 428.12 Q 1739.214 427.94 1740.161 422.164 L 1740.161 422.164 L 1740.161 422.164 Q 1741.109 416.388 1742.485 408.401 L 1742.485 408.401 L 1742.485 408.401 Q 1743.862 400.414 1744.29 397.932 L 1744.29 397.932 L 1744.29 397.932 Q 1744.719 395.45 1744.764 395.135 L 1744.764 395.135 L 1744.764 395.135 Q 1744.945 394.097 1751.397 394.097 Z  M 1752.435 413.049 L 1750.044 400.008 L 1747.968 413.049 L 1752.435 413.049 Z  M 1764.303 427.714 L 1764.303 427.714 L 1764.303 394.864 L 1764.303 394.864 Q 1768.905 394.142 1772.29 394.142 L 1772.29 394.142 L 1772.29 394.142 Q 1778.562 394.142 1780.954 396.488 L 1780.954 396.488 L 1780.954 396.488 Q 1783.345 398.835 1783.345 404.25 L 1783.345 404.25 L 1783.345 404.25 Q 1783.345 411.83 1779.103 414.357 L 1779.103 414.357 L 1784.789 427.218 L 1784.789 427.218 Q 1785.285 428.346 1785.285 428.684 L 1785.285 428.684 L 1785.285 428.684 Q 1785.285 429.023 1785.195 429.113 L 1785.195 429.113 L 1785.195 429.113 Q 1785.015 429.519 1783.661 429.519 L 1783.661 429.519 L 1783.661 429.519 Q 1779.284 429.519 1778.517 427.804 L 1778.517 427.804 L 1773.373 415.892 L 1773.373 415.892 Q 1772.245 415.982 1769.988 415.982 L 1769.988 415.982 L 1769.988 427.624 L 1769.988 427.624 Q 1769.988 428.887 1769.74 429.203 L 1769.74 429.203 L 1769.74 429.203 Q 1769.492 429.519 1768.183 429.519 L 1768.183 429.519 L 1768.183 429.519 Q 1764.303 429.519 1764.303 427.714 Z  M 1770.71 409.8 L 1770.71 409.8 L 1770.71 409.8 Q 1774.32 409.8 1775.584 408.785 L 1775.584 408.785 L 1775.584 408.785 Q 1776.847 407.769 1776.847 404.205 L 1776.847 404.205 L 1776.847 404.205 Q 1776.847 402.039 1776.148 400.775 L 1776.148 400.775 L 1776.148 400.775 Q 1775.448 399.512 1774.591 399.512 L 1774.591 399.512 L 1774.591 399.512 Q 1771.387 399.512 1770.688 399.647 L 1770.688 399.647 L 1770.688 399.647 Q 1769.988 399.782 1769.988 400.549 L 1769.988 400.549 L 1769.988 409.123 L 1769.988 409.123 Q 1769.988 409.71 1770.214 409.755 L 1770.214 409.755 L 1770.214 409.755 Q 1770.44 409.8 1770.71 409.8 Z " fill="rgb(227,121,121)"/><g><rect x="1628.906" y="370.412" width="73.994" height="40.697" transform="matrix(1,0,0,1,0,0)" fill="rgb(255,255,255)"/><path d=" M 1628.906 411.109 L 1702.9 411.109 L 1702.9 370.412 L 1628.906 370.412 L 1628.906 411.109 Z  M 1699.2 374.112 L 1699.2 407.409 L 1632.605 407.409 L 1632.605 374.112 L 1699.2 374.112 Z " fill="rgb(0,0,0)"/><circle vector-effect="non-scaling-stroke" cx="1643.7045466704199" cy="390.7604238715234" r="3.6997196836755393" fill="rgb(0,0,0)"/><circle vector-effect="non-scaling-stroke" cx="1688.1011828745263" cy="390.7604238715234" r="3.6997196836755393" fill="rgb(0,0,0)"/><circle vector-effect="non-scaling-stroke" cx="1665.9028647724726" cy="390.7604238715235" r="12.949018892864387" fill="rgb(0,0,0)"/><g><circle vector-effect="non-scaling-stroke" cx="1698.1097909444143" cy="375.2022362761215" r="4.790270664813988" fill="rgb(0,0,0)"/><circle vector-effect="non-scaling-stroke" cx="1698.1097909444143" cy="406.3186114669244" r="4.790270664813988" fill="rgb(0,0,0)"/><circle vector-effect="non-scaling-stroke" cx="1633.6959386005315" cy="375.2022362761215" r="4.790270664813988" fill="rgb(0,0,0)"/><circle vector-effect="non-scaling-stroke" cx="1633.6959386005315" cy="406.3186114669244" r="4.790270664813988" fill="rgb(0,0,0)"/></g><path d=" M 1664.725 387.715 L 1664.725 387.715 L 1664.725 387.715 Q 1664.725 388.116 1665.163 388.366 L 1665.163 388.366 L 1665.163 388.366 Q 1665.602 388.617 1665.878 388.755 L 1665.878 388.755 L 1665.878 388.755 Q 1666.154 388.893 1666.705 389.143 L 1666.705 389.143 L 1666.705 389.143 Q 1668.56 389.946 1669.475 390.923 L 1669.475 390.923 L 1669.475 390.923 Q 1670.39 391.901 1670.39 392.854 L 1670.39 392.854 L 1670.39 392.854 Q 1670.39 394.408 1669.751 395.536 L 1669.751 395.536 L 1669.751 395.536 Q 1669.112 396.664 1667.933 397.166 L 1667.933 397.166 L 1667.959 400.399 L 1664.85 400.399 L 1664.449 399.998 L 1664.449 397.316 L 1664.449 397.316 Q 1662.619 396.965 1661.516 395.536 L 1661.516 395.536 L 1661.516 395.536 Q 1661.416 395.486 1661.416 395.386 L 1661.416 395.386 L 1661.416 395.386 Q 1661.416 395.285 1661.453 395.135 L 1661.453 395.135 L 1661.453 395.135 Q 1661.491 394.985 1662.042 394.32 L 1662.042 394.32 L 1662.042 394.32 Q 1662.594 393.656 1662.92 393.656 L 1662.92 393.656 L 1662.92 393.656 Q 1663.02 393.656 1663.12 393.756 L 1663.12 393.756 L 1663.12 393.756 Q 1664.449 394.809 1665.702 394.809 L 1665.702 394.809 L 1665.702 394.809 Q 1666.404 394.809 1666.755 394.408 L 1666.755 394.408 L 1666.755 394.408 Q 1667.106 394.007 1667.106 393.531 L 1667.106 393.531 L 1667.106 393.531 Q 1667.106 393.054 1666.705 392.753 L 1666.705 392.753 L 1666.705 392.753 Q 1666.304 392.453 1665.715 392.164 L 1665.715 392.164 L 1665.715 392.164 Q 1665.126 391.876 1665.076 391.851 L 1665.076 391.851 L 1665.076 391.851 Q 1665.025 391.826 1664.938 391.776 L 1664.938 391.776 L 1664.938 391.776 Q 1664.85 391.726 1664.775 391.7 L 1664.775 391.7 L 1664.775 391.7 Q 1663.496 391.074 1662.606 390.134 L 1662.606 390.134 L 1662.606 390.134 Q 1661.716 389.194 1661.716 388.04 L 1661.716 388.04 L 1661.716 388.04 Q 1661.716 386.386 1662.418 385.496 L 1662.418 385.496 L 1662.418 385.496 Q 1663.12 384.606 1664.599 384.355 L 1664.599 384.355 L 1664.649 381.121 L 1667.432 381.121 L 1667.833 381.523 L 1667.833 384.481 L 1667.833 384.481 Q 1668.711 384.731 1669.187 385.082 L 1669.187 385.082 L 1669.212 385.082 L 1669.212 385.082 Q 1669.413 385.208 1669.45 385.383 L 1669.45 385.383 L 1669.45 385.383 Q 1669.488 385.559 1669.413 386.135 L 1669.413 386.135 L 1669.413 386.135 Q 1669.162 387.589 1668.811 387.589 L 1668.811 387.589 L 1668.811 387.589 Q 1668.736 387.589 1668.66 387.539 L 1668.66 387.539 L 1667.708 387.063 L 1667.708 387.063 Q 1666.63 386.637 1665.853 386.637 L 1665.853 386.637 L 1665.853 386.637 Q 1664.725 386.687 1664.725 387.715 Z " fill="rgb(165,214,167)"/></g></g></svg>