<?xml version="1.0" encoding="UTF-8" standalone="no"?><!-- Generator: Gravit.io --><svg xmlns="http://www.w3.org/2000/svg" xmlns:xlink="http://www.w3.org/1999/xlink" style="isolation:isolate" viewBox="244 476 108 95.344" width="108pt" height="95.344pt"><clipPath id="_clipPath_JaxA5v98PgCJVWrx30QwsAPNwIhiACiG"><rect x="244" y="476" width="108" height="95.344" transform="matrix(1,0,0,1,0,0)" fill="rgb(255,255,255)"/></clipPath><g clip-path="url(#_clipPath_JaxA5v98PgCJVWrx30QwsAPNwIhiACiG)"><g><g><rect x="276.45" y="508.39" width="41.347" height="22.741" transform="matrix(0.954,-0.298,0.298,0.954,-141.49,112.267)" fill="rgb(255,255,255)"/><path d=" M 280.782 536.779 L 320.248 524.448 L 313.466 502.741 L 274 515.073 L 280.782 536.779 Z  M 312.109 505.331 L 317.658 523.091 L 282.139 534.189 L 276.59 516.429 L 312.109 505.331 Z " fill="rgb(0,0,0)"/><path d=" M 283.311 524.076 C 282.971 522.987 283.579 521.826 284.668 521.486 C 285.757 521.146 286.917 521.754 287.258 522.843 C 287.598 523.932 286.99 525.092 285.901 525.433 C 284.812 525.773 283.651 525.165 283.311 524.076 Z " fill="rgb(0,0,0)"/><path d=" M 306.99 516.677 C 306.65 515.588 307.258 514.428 308.347 514.087 C 309.436 513.747 310.597 514.355 310.937 515.444 C 311.277 516.533 310.669 517.694 309.58 518.034 C 308.491 518.374 307.331 517.766 306.99 516.677 Z " fill="rgb(0,0,0)"/><path d=" M 290.217 521.918 C 289.026 518.106 291.154 514.045 294.966 512.854 C 298.778 511.663 302.839 513.79 304.03 517.602 C 305.221 521.414 303.094 525.476 299.282 526.667 C 295.47 527.858 291.408 525.73 290.217 521.918 Z " fill="rgb(0,0,0)"/><g><path d=" M 309.154 506.893 C 308.713 505.483 309.501 503.98 310.911 503.54 C 312.321 503.099 313.823 503.886 314.264 505.296 C 314.705 506.706 313.917 508.209 312.507 508.65 C 311.097 509.09 309.595 508.303 309.154 506.893 Z " fill="rgb(0,0,0)"/><path d=" M 314.34 523.489 C 313.899 522.079 314.686 520.577 316.096 520.136 C 317.506 519.695 319.009 520.482 319.45 521.893 C 319.89 523.303 319.103 524.805 317.693 525.246 C 316.283 525.686 314.78 524.899 314.34 523.489 Z " fill="rgb(0,0,0)"/><path d=" M 274.798 517.628 C 274.358 516.218 275.145 514.715 276.555 514.274 C 277.965 513.834 279.468 514.621 279.908 516.031 C 280.349 517.441 279.562 518.944 278.152 519.384 C 276.741 519.825 275.239 519.038 274.798 517.628 Z " fill="rgb(0,0,0)"/><path d=" M 279.984 534.224 C 279.543 532.814 280.33 531.311 281.741 530.871 C 283.151 530.43 284.653 531.217 285.094 532.627 C 285.534 534.037 284.747 535.54 283.337 535.98 C 281.927 536.421 280.424 535.634 279.984 534.224 Z " fill="rgb(0,0,0)"/></g><path d=" M 295.988 518.332 L 295.988 518.332 L 295.988 518.332 Q 296.055 518.546 296.33 518.606 L 296.33 518.606 L 296.33 518.606 Q 296.606 518.667 296.776 518.695 L 296.776 518.695 L 296.776 518.695 Q 296.946 518.722 297.282 518.764 L 297.282 518.764 L 297.282 518.764 Q 298.405 518.883 299.056 519.252 L 299.056 519.252 L 299.056 519.252 Q 299.707 519.621 299.866 520.129 L 299.866 520.129 L 299.866 520.129 Q 300.125 520.958 299.972 521.666 L 299.972 521.666 L 299.972 521.666 Q 299.819 522.374 299.274 522.838 L 299.274 522.838 L 299.827 524.559 L 298.169 525.077 L 297.888 524.93 L 297.441 523.499 L 297.441 523.499 Q 296.406 523.617 295.58 523.038 L 295.58 523.038 L 295.58 523.038 Q 295.518 523.028 295.501 522.975 L 295.501 522.975 L 295.501 522.975 Q 295.485 522.921 295.48 522.835 L 295.48 522.835 L 295.48 522.835 Q 295.475 522.748 295.658 522.302 L 295.658 522.302 L 295.658 522.302 Q 295.842 521.856 296.015 521.802 L 296.015 521.802 L 296.015 521.802 Q 296.069 521.785 296.139 521.822 L 296.139 521.822 L 296.139 521.822 Q 297.023 522.162 297.692 521.953 L 297.692 521.953 L 297.692 521.953 Q 298.066 521.836 298.186 521.563 L 298.186 521.563 L 298.186 521.563 Q 298.307 521.291 298.227 521.037 L 298.227 521.037 L 298.227 521.037 Q 298.148 520.783 297.884 520.689 L 297.884 520.689 L 297.884 520.689 Q 297.62 520.596 297.258 520.54 L 297.258 520.54 L 297.258 520.54 Q 296.895 520.485 296.864 520.48 L 296.864 520.48 L 296.864 520.48 Q 296.833 520.475 296.778 520.462 L 296.778 520.462 L 296.778 520.462 Q 296.723 520.45 296.679 520.449 L 296.679 520.449 L 296.679 520.449 Q 295.893 520.328 295.261 519.975 L 295.261 519.975 L 295.261 519.975 Q 294.63 519.622 294.438 519.007 L 294.438 519.007 L 294.438 519.007 Q 294.162 518.125 294.388 517.533 L 294.388 517.533 L 294.388 517.533 Q 294.614 516.941 295.361 516.561 L 295.361 516.561 L 294.849 514.828 L 296.333 514.364 L 296.614 514.511 L 297.107 516.089 L 297.107 516.089 Q 297.617 516.077 297.929 516.184 L 297.929 516.184 L 297.943 516.18 L 297.943 516.18 Q 298.07 516.214 298.12 516.301 L 298.12 516.301 L 298.12 516.301 Q 298.169 516.388 298.225 516.708 L 298.225 516.708 L 298.225 516.708 Q 298.334 517.526 298.146 517.584 L 298.146 517.584 L 298.146 517.584 Q 298.106 517.597 298.058 517.582 L 298.058 517.582 L 297.47 517.487 L 297.47 517.487 Q 296.824 517.439 296.41 517.569 L 296.41 517.569 L 296.41 517.569 Q 295.817 517.784 295.988 518.332 Z " fill="rgb(165,214,167)"/></g><g><rect x="280.653" y="521.861" width="41.347" height="22.741" transform="matrix(1,0,0,1,0,0)" fill="rgb(255,255,255)"/><path d=" M 280.653 544.602 L 322 544.602 L 322 521.861 L 280.653 521.861 L 280.653 544.602 Z  M 319.933 523.929 L 319.933 542.535 L 282.72 542.535 L 282.72 523.929 L 319.933 523.929 Z " fill="rgb(0,0,0)"/><circle vector-effect="non-scaling-stroke" cx="288.9222039678075" cy="533.2318310801395" r="2.0673622520120034" fill="rgb(0,0,0)"/><circle vector-effect="non-scaling-stroke" cx="313.73055099195176" cy="533.2318310801395" r="2.0673622520120034" fill="rgb(0,0,0)"/><circle vector-effect="non-scaling-stroke" cx="301.3263774798796" cy="533.2318310801397" r="7.235767882042069" fill="rgb(0,0,0)"/><g><circle vector-effect="non-scaling-stroke" cx="319.32324997673345" cy="524.5380887173394" r="2.6767500232662655" fill="rgb(0,0,0)"/><circle vector-effect="non-scaling-stroke" cx="319.32324997673345" cy="541.9255734429398" r="2.6767500232662655" fill="rgb(0,0,0)"/><circle vector-effect="non-scaling-stroke" cx="283.3295049830257" cy="524.5380887173394" r="2.6767500232662655" fill="rgb(0,0,0)"/><circle vector-effect="non-scaling-stroke" cx="283.3295049830257" cy="541.9255734429398" r="2.6767500232662655" fill="rgb(0,0,0)"/></g><path d=" M 300.668 531.53 L 300.668 531.53 L 300.668 531.53 Q 300.668 531.754 300.913 531.894 L 300.913 531.894 L 300.913 531.894 Q 301.158 532.034 301.312 532.111 L 301.312 532.111 L 301.312 532.111 Q 301.466 532.188 301.775 532.328 L 301.775 532.328 L 301.775 532.328 Q 302.811 532.777 303.323 533.323 L 303.323 533.323 L 303.323 533.323 Q 303.834 533.869 303.834 534.402 L 303.834 534.402 L 303.834 534.402 Q 303.834 535.27 303.477 535.9 L 303.477 535.9 L 303.477 535.9 Q 303.119 536.531 302.461 536.811 L 302.461 536.811 L 302.475 538.618 L 300.738 538.618 L 300.514 538.394 L 300.514 536.895 L 300.514 536.895 Q 299.491 536.699 298.875 535.9 L 298.875 535.9 L 298.875 535.9 Q 298.819 535.872 298.819 535.816 L 298.819 535.816 L 298.819 535.816 Q 298.819 535.76 298.84 535.676 L 298.84 535.676 L 298.84 535.676 Q 298.861 535.592 299.169 535.221 L 299.169 535.221 L 299.169 535.221 Q 299.477 534.85 299.659 534.85 L 299.659 534.85 L 299.659 534.85 Q 299.715 534.85 299.771 534.906 L 299.771 534.906 L 299.771 534.906 Q 300.514 535.494 301.214 535.494 L 301.214 535.494 L 301.214 535.494 Q 301.607 535.494 301.803 535.27 L 301.803 535.27 L 301.803 535.27 Q 301.999 535.046 301.999 534.78 L 301.999 534.78 L 301.999 534.78 Q 301.999 534.514 301.775 534.345 L 301.775 534.345 L 301.775 534.345 Q 301.551 534.177 301.221 534.016 L 301.221 534.016 L 301.221 534.016 Q 300.892 533.855 300.864 533.841 L 300.864 533.841 L 300.864 533.841 Q 300.836 533.827 300.787 533.799 L 300.787 533.799 L 300.787 533.799 Q 300.738 533.771 300.696 533.757 L 300.696 533.757 L 300.696 533.757 Q 299.982 533.407 299.484 532.882 L 299.484 532.882 L 299.484 532.882 Q 298.987 532.356 298.987 531.712 L 298.987 531.712 L 298.987 531.712 Q 298.987 530.787 299.379 530.29 L 299.379 530.29 L 299.379 530.29 Q 299.771 529.793 300.598 529.653 L 300.598 529.653 L 300.626 527.846 L 302.181 527.846 L 302.405 528.07 L 302.405 529.723 L 302.405 529.723 Q 302.895 529.863 303.161 530.059 L 303.161 530.059 L 303.175 530.059 L 303.175 530.059 Q 303.288 530.129 303.309 530.227 L 303.309 530.227 L 303.309 530.227 Q 303.33 530.325 303.288 530.647 L 303.288 530.647 L 303.288 530.647 Q 303.147 531.46 302.951 531.46 L 302.951 531.46 L 302.951 531.46 Q 302.909 531.46 302.867 531.432 L 302.867 531.432 L 302.335 531.166 L 302.335 531.166 Q 301.733 530.927 301.298 530.927 L 301.298 530.927 L 301.298 530.927 Q 300.668 530.955 300.668 531.53 Z " fill="rgb(165,214,167)"/></g></g></g></svg>